<svg xmlns="http://www.w3.org/2000/svg" xmlns:xlink="http://www.w3.org/1999/xlink" width="600" height="400" viewBox="0 0 2400 1600">
<defs>
  <clipPath id="clip210">
    <rect x="0" y="0" width="2400" height="1600"></rect>
  </clipPath>
</defs>
<path clip-path="url(#clip210)" d="M0 1600 L2400 1600 L2400 0 L0 0  Z" fill="#ffffff" fill-rule="evenodd" fill-opacity="1"></path>
<defs>
  <clipPath id="clip211">
    <rect x="480" y="0" width="1681" height="1600"></rect>
  </clipPath>
</defs>
<path clip-path="url(#clip210)" d="M242.135 1423.18 L2352.76 1423.18 L2352.76 47.2441 L242.135 47.2441  Z" fill="#ffffff" fill-rule="evenodd" fill-opacity="1"></path>
<defs>
  <clipPath id="clip212">
    <rect x="242" y="47" width="2112" height="1377"></rect>
  </clipPath>
</defs>
<polyline clip-path="url(#clip212)" style="stroke:#000000; stroke-linecap:round; stroke-linejoin:round; stroke-width:2; stroke-opacity:0.1; fill:none" points="301.869,1423.18 301.869,47.2441 "></polyline>
<polyline clip-path="url(#clip212)" style="stroke:#000000; stroke-linecap:round; stroke-linejoin:round; stroke-width:2; stroke-opacity:0.1; fill:none" points="799.657,1423.18 799.657,47.2441 "></polyline>
<polyline clip-path="url(#clip212)" style="stroke:#000000; stroke-linecap:round; stroke-linejoin:round; stroke-width:2; stroke-opacity:0.1; fill:none" points="1297.45,1423.18 1297.45,47.2441 "></polyline>
<polyline clip-path="url(#clip212)" style="stroke:#000000; stroke-linecap:round; stroke-linejoin:round; stroke-width:2; stroke-opacity:0.1; fill:none" points="1795.23,1423.18 1795.23,47.2441 "></polyline>
<polyline clip-path="url(#clip212)" style="stroke:#000000; stroke-linecap:round; stroke-linejoin:round; stroke-width:2; stroke-opacity:0.1; fill:none" points="2293.02,1423.18 2293.02,47.2441 "></polyline>
<polyline clip-path="url(#clip210)" style="stroke:#000000; stroke-linecap:round; stroke-linejoin:round; stroke-width:4; stroke-opacity:1; fill:none" points="242.135,1423.18 2352.76,1423.18 "></polyline>
<polyline clip-path="url(#clip210)" style="stroke:#000000; stroke-linecap:round; stroke-linejoin:round; stroke-width:4; stroke-opacity:1; fill:none" points="301.869,1423.18 301.869,1404.28 "></polyline>
<polyline clip-path="url(#clip210)" style="stroke:#000000; stroke-linecap:round; stroke-linejoin:round; stroke-width:4; stroke-opacity:1; fill:none" points="799.657,1423.18 799.657,1404.28 "></polyline>
<polyline clip-path="url(#clip210)" style="stroke:#000000; stroke-linecap:round; stroke-linejoin:round; stroke-width:4; stroke-opacity:1; fill:none" points="1297.45,1423.18 1297.45,1404.28 "></polyline>
<polyline clip-path="url(#clip210)" style="stroke:#000000; stroke-linecap:round; stroke-linejoin:round; stroke-width:4; stroke-opacity:1; fill:none" points="1795.23,1423.18 1795.23,1404.28 "></polyline>
<polyline clip-path="url(#clip210)" style="stroke:#000000; stroke-linecap:round; stroke-linejoin:round; stroke-width:4; stroke-opacity:1; fill:none" points="2293.02,1423.18 2293.02,1404.28 "></polyline>
<path clip-path="url(#clip210)" d="M279.254 1454.1 Q275.643 1454.1 273.814 1457.66 Q272.008 1461.2 272.008 1468.33 Q272.008 1475.44 273.814 1479.01 Q275.643 1482.55 279.254 1482.55 Q282.888 1482.55 284.693 1479.01 Q286.522 1475.44 286.522 1468.33 Q286.522 1461.2 284.693 1457.66 Q282.888 1454.1 279.254 1454.1 M279.254 1450.39 Q285.064 1450.39 288.119 1455 Q291.198 1459.58 291.198 1468.33 Q291.198 1477.06 288.119 1481.67 Q285.064 1486.25 279.254 1486.25 Q273.443 1486.25 270.365 1481.67 Q267.309 1477.06 267.309 1468.33 Q267.309 1459.58 270.365 1455 Q273.443 1450.39 279.254 1450.39 Z" fill="#000000" fill-rule="nonzero" fill-opacity="1"></path><path clip-path="url(#clip210)" d="M299.416 1479.7 L304.3 1479.7 L304.3 1485.58 L299.416 1485.58 L299.416 1479.7 Z" fill="#000000" fill-rule="nonzero" fill-opacity="1"></path><path clip-path="url(#clip210)" d="M324.485 1454.1 Q320.874 1454.1 319.045 1457.66 Q317.24 1461.2 317.24 1468.33 Q317.24 1475.44 319.045 1479.01 Q320.874 1482.55 324.485 1482.55 Q328.119 1482.55 329.925 1479.01 Q331.753 1475.44 331.753 1468.33 Q331.753 1461.2 329.925 1457.66 Q328.119 1454.1 324.485 1454.1 M324.485 1450.39 Q330.295 1450.39 333.351 1455 Q336.429 1459.58 336.429 1468.33 Q336.429 1477.06 333.351 1481.67 Q330.295 1486.25 324.485 1486.25 Q318.675 1486.25 315.596 1481.67 Q312.54 1477.06 312.54 1468.33 Q312.54 1459.58 315.596 1455 Q318.675 1450.39 324.485 1450.39 Z" fill="#000000" fill-rule="nonzero" fill-opacity="1"></path><path clip-path="url(#clip210)" d="M771.394 1481.64 L787.713 1481.64 L787.713 1485.58 L765.769 1485.58 L765.769 1481.64 Q768.431 1478.89 773.014 1474.26 Q777.62 1469.61 778.801 1468.27 Q781.046 1465.74 781.926 1464.01 Q782.829 1462.25 782.829 1460.56 Q782.829 1457.8 780.884 1456.07 Q778.963 1454.33 775.861 1454.33 Q773.662 1454.33 771.208 1455.09 Q768.778 1455.86 766 1457.41 L766 1452.69 Q768.824 1451.55 771.278 1450.97 Q773.731 1450.39 775.768 1450.39 Q781.139 1450.39 784.333 1453.08 Q787.528 1455.77 787.528 1460.26 Q787.528 1462.39 786.718 1464.31 Q785.93 1466.2 783.824 1468.8 Q783.245 1469.47 780.143 1472.69 Q777.042 1475.88 771.394 1481.64 Z" fill="#000000" fill-rule="nonzero" fill-opacity="1"></path><path clip-path="url(#clip210)" d="M797.528 1479.7 L802.412 1479.7 L802.412 1485.58 L797.528 1485.58 L797.528 1479.7 Z" fill="#000000" fill-rule="nonzero" fill-opacity="1"></path><path clip-path="url(#clip210)" d="M812.643 1451.02 L831 1451.02 L831 1454.96 L816.926 1454.96 L816.926 1463.43 Q817.944 1463.08 818.963 1462.92 Q819.981 1462.73 821 1462.73 Q826.787 1462.73 830.166 1465.9 Q833.546 1469.08 833.546 1474.49 Q833.546 1480.07 830.074 1483.17 Q826.602 1486.25 820.282 1486.25 Q818.106 1486.25 815.838 1485.88 Q813.592 1485.51 811.185 1484.77 L811.185 1480.07 Q813.268 1481.2 815.491 1481.76 Q817.713 1482.32 820.19 1482.32 Q824.194 1482.32 826.532 1480.21 Q828.87 1478.1 828.87 1474.49 Q828.87 1470.88 826.532 1468.77 Q824.194 1466.67 820.19 1466.67 Q818.315 1466.67 816.44 1467.08 Q814.588 1467.5 812.643 1468.38 L812.643 1451.02 Z" fill="#000000" fill-rule="nonzero" fill-opacity="1"></path><path clip-path="url(#clip210)" d="M1264.61 1451.02 L1282.97 1451.02 L1282.97 1454.96 L1268.89 1454.96 L1268.89 1463.43 Q1269.91 1463.08 1270.93 1462.92 Q1271.95 1462.73 1272.97 1462.73 Q1278.75 1462.73 1282.13 1465.9 Q1285.51 1469.08 1285.51 1474.49 Q1285.51 1480.07 1282.04 1483.17 Q1278.57 1486.25 1272.25 1486.25 Q1270.07 1486.25 1267.8 1485.88 Q1265.56 1485.51 1263.15 1484.77 L1263.15 1480.07 Q1265.23 1481.2 1267.46 1481.76 Q1269.68 1482.32 1272.16 1482.32 Q1276.16 1482.32 1278.5 1480.21 Q1280.84 1478.1 1280.84 1474.49 Q1280.84 1470.88 1278.5 1468.77 Q1276.16 1466.67 1272.16 1466.67 Q1270.28 1466.67 1268.41 1467.08 Q1266.55 1467.5 1264.61 1468.38 L1264.61 1451.02 Z" fill="#000000" fill-rule="nonzero" fill-opacity="1"></path><path clip-path="url(#clip210)" d="M1294.73 1479.7 L1299.61 1479.7 L1299.61 1485.58 L1294.73 1485.58 L1294.73 1479.7 Z" fill="#000000" fill-rule="nonzero" fill-opacity="1"></path><path clip-path="url(#clip210)" d="M1319.79 1454.1 Q1316.18 1454.1 1314.35 1457.66 Q1312.55 1461.2 1312.55 1468.33 Q1312.55 1475.44 1314.35 1479.01 Q1316.18 1482.55 1319.79 1482.55 Q1323.43 1482.55 1325.23 1479.01 Q1327.06 1475.44 1327.06 1468.33 Q1327.06 1461.2 1325.23 1457.66 Q1323.43 1454.1 1319.79 1454.1 M1319.79 1450.39 Q1325.6 1450.39 1328.66 1455 Q1331.74 1459.58 1331.74 1468.33 Q1331.74 1477.06 1328.66 1481.67 Q1325.6 1486.25 1319.79 1486.25 Q1313.98 1486.25 1310.91 1481.67 Q1307.85 1477.06 1307.85 1468.33 Q1307.85 1459.58 1310.91 1455 Q1313.98 1450.39 1319.79 1450.39 Z" fill="#000000" fill-rule="nonzero" fill-opacity="1"></path><path clip-path="url(#clip210)" d="M1761.55 1451.02 L1783.78 1451.02 L1783.78 1453.01 L1771.23 1485.58 L1766.34 1485.58 L1778.15 1454.96 L1761.55 1454.96 L1761.55 1451.02 Z" fill="#000000" fill-rule="nonzero" fill-opacity="1"></path><path clip-path="url(#clip210)" d="M1792.9 1479.7 L1797.78 1479.7 L1797.78 1485.58 L1792.9 1485.58 L1792.9 1479.7 Z" fill="#000000" fill-rule="nonzero" fill-opacity="1"></path><path clip-path="url(#clip210)" d="M1808.01 1451.02 L1826.37 1451.02 L1826.37 1454.96 L1812.29 1454.96 L1812.29 1463.43 Q1813.31 1463.08 1814.33 1462.92 Q1815.35 1462.73 1816.37 1462.73 Q1822.15 1462.73 1825.53 1465.9 Q1828.91 1469.08 1828.91 1474.49 Q1828.91 1480.07 1825.44 1483.17 Q1821.97 1486.25 1815.65 1486.25 Q1813.47 1486.25 1811.21 1485.88 Q1808.96 1485.51 1806.55 1484.77 L1806.55 1480.07 Q1808.64 1481.2 1810.86 1481.76 Q1813.08 1482.32 1815.56 1482.32 Q1819.56 1482.32 1821.9 1480.21 Q1824.24 1478.1 1824.24 1474.49 Q1824.24 1470.88 1821.9 1468.77 Q1819.56 1466.67 1815.56 1466.67 Q1813.68 1466.67 1811.81 1467.08 Q1809.96 1467.5 1808.01 1468.38 L1808.01 1451.02 Z" fill="#000000" fill-rule="nonzero" fill-opacity="1"></path><path clip-path="url(#clip210)" d="M2245.09 1481.64 L2252.73 1481.64 L2252.73 1455.28 L2244.42 1456.95 L2244.42 1452.69 L2252.69 1451.02 L2257.36 1451.02 L2257.36 1481.64 L2265 1481.64 L2265 1485.58 L2245.09 1485.58 L2245.09 1481.64 Z" fill="#000000" fill-rule="nonzero" fill-opacity="1"></path><path clip-path="url(#clip210)" d="M2284.44 1454.1 Q2280.83 1454.1 2279.01 1457.66 Q2277.2 1461.2 2277.2 1468.33 Q2277.2 1475.44 2279.01 1479.01 Q2280.83 1482.55 2284.44 1482.55 Q2288.08 1482.55 2289.88 1479.01 Q2291.71 1475.44 2291.71 1468.33 Q2291.71 1461.2 2289.88 1457.66 Q2288.08 1454.1 2284.44 1454.1 M2284.44 1450.39 Q2290.26 1450.39 2293.31 1455 Q2296.39 1459.58 2296.39 1468.33 Q2296.39 1477.06 2293.31 1481.67 Q2290.26 1486.25 2284.44 1486.25 Q2278.63 1486.25 2275.56 1481.67 Q2272.5 1477.06 2272.5 1468.33 Q2272.5 1459.58 2275.56 1455 Q2278.63 1450.39 2284.44 1450.39 Z" fill="#000000" fill-rule="nonzero" fill-opacity="1"></path><path clip-path="url(#clip210)" d="M2304.61 1479.7 L2309.49 1479.7 L2309.49 1485.58 L2304.61 1485.58 L2304.61 1479.7 Z" fill="#000000" fill-rule="nonzero" fill-opacity="1"></path><path clip-path="url(#clip210)" d="M2329.68 1454.1 Q2326.07 1454.1 2324.24 1457.66 Q2322.43 1461.2 2322.43 1468.33 Q2322.43 1475.44 2324.24 1479.01 Q2326.07 1482.55 2329.68 1482.55 Q2333.31 1482.55 2335.12 1479.01 Q2336.94 1475.44 2336.94 1468.33 Q2336.94 1461.2 2335.12 1457.66 Q2333.31 1454.1 2329.68 1454.1 M2329.68 1450.39 Q2335.49 1450.39 2338.54 1455 Q2341.62 1459.58 2341.62 1468.33 Q2341.62 1477.06 2338.54 1481.67 Q2335.49 1486.25 2329.68 1486.25 Q2323.87 1486.25 2320.79 1481.67 Q2317.73 1477.06 2317.73 1468.33 Q2317.73 1459.58 2320.79 1455 Q2323.87 1450.39 2329.68 1450.39 Z" fill="#000000" fill-rule="nonzero" fill-opacity="1"></path><path clip-path="url(#clip210)" d="M1192.33 1520.52 L1232.53 1520.52 L1232.53 1525.93 L1215.66 1525.93 L1215.66 1568.04 L1209.2 1568.04 L1209.2 1525.93 L1192.33 1525.93 L1192.33 1520.52 Z" fill="#000000" fill-rule="nonzero" fill-opacity="1"></path><path clip-path="url(#clip210)" d="M1257.9 1548.76 L1257.9 1551.62 L1230.97 1551.62 Q1231.35 1557.67 1234.6 1560.85 Q1237.88 1564 1243.7 1564 Q1247.08 1564 1250.23 1563.17 Q1253.41 1562.35 1256.53 1560.69 L1256.53 1566.23 Q1253.38 1567.57 1250.07 1568.27 Q1246.76 1568.97 1243.35 1568.97 Q1234.82 1568.97 1229.83 1564 Q1224.86 1559.04 1224.86 1550.57 Q1224.86 1541.82 1229.57 1536.69 Q1234.31 1531.54 1242.33 1531.54 Q1249.53 1531.54 1253.7 1536.18 Q1257.9 1540.8 1257.9 1548.76 M1252.04 1547.04 Q1251.98 1542.23 1249.34 1539.37 Q1246.73 1536.5 1242.4 1536.5 Q1237.5 1536.5 1234.54 1539.27 Q1231.61 1542.04 1231.16 1547.07 L1252.04 1547.04 Z" fill="#000000" fill-rule="nonzero" fill-opacity="1"></path><path clip-path="url(#clip210)" d="M1295.27 1539.24 Q1297.46 1535.29 1300.52 1533.41 Q1303.57 1531.54 1307.71 1531.54 Q1313.28 1531.54 1316.3 1535.45 Q1319.33 1539.33 1319.33 1546.53 L1319.33 1568.04 L1313.44 1568.04 L1313.44 1546.72 Q1313.44 1541.59 1311.62 1539.11 Q1309.81 1536.63 1306.09 1536.63 Q1301.54 1536.63 1298.89 1539.65 Q1296.25 1542.68 1296.25 1547.9 L1296.25 1568.04 L1290.36 1568.04 L1290.36 1546.72 Q1290.36 1541.56 1288.55 1539.11 Q1286.73 1536.63 1282.95 1536.63 Q1278.46 1536.63 1275.82 1539.68 Q1273.18 1542.71 1273.18 1547.9 L1273.18 1568.04 L1267.29 1568.04 L1267.29 1532.4 L1273.18 1532.4 L1273.18 1537.93 Q1275.18 1534.66 1277.98 1533.1 Q1280.78 1531.54 1284.63 1531.54 Q1288.52 1531.54 1291.22 1533.51 Q1293.96 1535.48 1295.27 1539.24 Z" fill="#000000" fill-rule="nonzero" fill-opacity="1"></path><path clip-path="url(#clip210)" d="M1336.67 1562.7 L1336.67 1581.6 L1330.79 1581.6 L1330.79 1532.4 L1336.67 1532.4 L1336.67 1537.81 Q1338.52 1534.62 1341.32 1533.1 Q1344.15 1531.54 1348.07 1531.54 Q1354.56 1531.54 1358.6 1536.69 Q1362.68 1541.85 1362.68 1550.25 Q1362.68 1558.65 1358.6 1563.81 Q1354.56 1568.97 1348.07 1568.97 Q1344.15 1568.97 1341.32 1567.44 Q1338.52 1565.88 1336.67 1562.7 M1356.6 1550.25 Q1356.6 1543.79 1353.93 1540.13 Q1351.28 1536.44 1346.64 1536.44 Q1341.99 1536.44 1339.32 1540.13 Q1336.67 1543.79 1336.67 1550.25 Q1336.67 1556.71 1339.32 1560.4 Q1341.99 1564.07 1346.64 1564.07 Q1351.28 1564.07 1353.93 1560.4 Q1356.6 1556.71 1356.6 1550.25 Z" fill="#000000" fill-rule="nonzero" fill-opacity="1"></path><path clip-path="url(#clip210)" d="M1386.2 1536.5 Q1381.49 1536.5 1378.75 1540.19 Q1376.01 1543.85 1376.01 1550.25 Q1376.01 1556.65 1378.72 1560.34 Q1381.46 1564 1386.2 1564 Q1390.88 1564 1393.62 1560.31 Q1396.35 1556.62 1396.35 1550.25 Q1396.35 1543.92 1393.62 1540.23 Q1390.88 1536.5 1386.2 1536.5 M1386.2 1531.54 Q1393.84 1531.54 1398.2 1536.5 Q1402.56 1541.47 1402.56 1550.25 Q1402.56 1559 1398.2 1564 Q1393.84 1568.97 1386.2 1568.97 Q1378.53 1568.97 1374.17 1564 Q1369.84 1559 1369.84 1550.25 Q1369.84 1541.47 1374.17 1536.5 Q1378.53 1531.54 1386.2 1531.54 Z" fill="#000000" fill-rule="nonzero" fill-opacity="1"></path><polyline clip-path="url(#clip212)" style="stroke:#000000; stroke-linecap:round; stroke-linejoin:round; stroke-width:2; stroke-opacity:0.1; fill:none" points="242.135,1374.64 2352.76,1374.64 "></polyline>
<polyline clip-path="url(#clip212)" style="stroke:#000000; stroke-linecap:round; stroke-linejoin:round; stroke-width:2; stroke-opacity:0.1; fill:none" points="242.135,1170.54 2352.76,1170.54 "></polyline>
<polyline clip-path="url(#clip212)" style="stroke:#000000; stroke-linecap:round; stroke-linejoin:round; stroke-width:2; stroke-opacity:0.1; fill:none" points="242.135,966.436 2352.76,966.436 "></polyline>
<polyline clip-path="url(#clip212)" style="stroke:#000000; stroke-linecap:round; stroke-linejoin:round; stroke-width:2; stroke-opacity:0.1; fill:none" points="242.135,762.335 2352.76,762.335 "></polyline>
<polyline clip-path="url(#clip212)" style="stroke:#000000; stroke-linecap:round; stroke-linejoin:round; stroke-width:2; stroke-opacity:0.1; fill:none" points="242.135,558.234 2352.76,558.234 "></polyline>
<polyline clip-path="url(#clip212)" style="stroke:#000000; stroke-linecap:round; stroke-linejoin:round; stroke-width:2; stroke-opacity:0.1; fill:none" points="242.135,354.133 2352.76,354.133 "></polyline>
<polyline clip-path="url(#clip212)" style="stroke:#000000; stroke-linecap:round; stroke-linejoin:round; stroke-width:2; stroke-opacity:0.1; fill:none" points="242.135,150.032 2352.76,150.032 "></polyline>
<polyline clip-path="url(#clip210)" style="stroke:#000000; stroke-linecap:round; stroke-linejoin:round; stroke-width:4; stroke-opacity:1; fill:none" points="242.135,1423.18 242.135,47.2441 "></polyline>
<polyline clip-path="url(#clip210)" style="stroke:#000000; stroke-linecap:round; stroke-linejoin:round; stroke-width:4; stroke-opacity:1; fill:none" points="242.135,1374.64 261.032,1374.64 "></polyline>
<polyline clip-path="url(#clip210)" style="stroke:#000000; stroke-linecap:round; stroke-linejoin:round; stroke-width:4; stroke-opacity:1; fill:none" points="242.135,1170.54 261.032,1170.54 "></polyline>
<polyline clip-path="url(#clip210)" style="stroke:#000000; stroke-linecap:round; stroke-linejoin:round; stroke-width:4; stroke-opacity:1; fill:none" points="242.135,966.436 261.032,966.436 "></polyline>
<polyline clip-path="url(#clip210)" style="stroke:#000000; stroke-linecap:round; stroke-linejoin:round; stroke-width:4; stroke-opacity:1; fill:none" points="242.135,762.335 261.032,762.335 "></polyline>
<polyline clip-path="url(#clip210)" style="stroke:#000000; stroke-linecap:round; stroke-linejoin:round; stroke-width:4; stroke-opacity:1; fill:none" points="242.135,558.234 261.032,558.234 "></polyline>
<polyline clip-path="url(#clip210)" style="stroke:#000000; stroke-linecap:round; stroke-linejoin:round; stroke-width:4; stroke-opacity:1; fill:none" points="242.135,354.133 261.032,354.133 "></polyline>
<polyline clip-path="url(#clip210)" style="stroke:#000000; stroke-linecap:round; stroke-linejoin:round; stroke-width:4; stroke-opacity:1; fill:none" points="242.135,150.032 261.032,150.032 "></polyline>
<path clip-path="url(#clip210)" d="M114.26 1375.09 L143.936 1375.09 L143.936 1379.02 L114.26 1379.02 L114.26 1375.09 Z" fill="#000000" fill-rule="nonzero" fill-opacity="1"></path><path clip-path="url(#clip210)" d="M154.839 1387.98 L162.477 1387.98 L162.477 1361.62 L154.167 1363.28 L154.167 1359.02 L162.431 1357.36 L167.107 1357.36 L167.107 1387.98 L174.746 1387.98 L174.746 1391.92 L154.839 1391.92 L154.839 1387.98 Z" fill="#000000" fill-rule="nonzero" fill-opacity="1"></path><path clip-path="url(#clip210)" d="M194.19 1360.44 Q190.579 1360.44 188.75 1364 Q186.945 1367.54 186.945 1374.67 Q186.945 1381.78 188.75 1385.34 Q190.579 1388.89 194.19 1388.89 Q197.825 1388.89 199.63 1385.34 Q201.459 1381.78 201.459 1374.67 Q201.459 1367.54 199.63 1364 Q197.825 1360.44 194.19 1360.44 M194.19 1356.73 Q200 1356.73 203.056 1361.34 Q206.135 1365.92 206.135 1374.67 Q206.135 1383.4 203.056 1388.01 Q200 1392.59 194.19 1392.59 Q188.38 1392.59 185.301 1388.01 Q182.246 1383.4 182.246 1374.67 Q182.246 1365.92 185.301 1361.34 Q188.38 1356.73 194.19 1356.73 Z" fill="#000000" fill-rule="nonzero" fill-opacity="1"></path><path clip-path="url(#clip210)" d="M194.19 1156.34 Q190.579 1156.34 188.75 1159.9 Q186.945 1163.44 186.945 1170.57 Q186.945 1177.68 188.75 1181.24 Q190.579 1184.78 194.19 1184.78 Q197.825 1184.78 199.63 1181.24 Q201.459 1177.68 201.459 1170.57 Q201.459 1163.44 199.63 1159.9 Q197.825 1156.34 194.19 1156.34 M194.19 1152.63 Q200 1152.63 203.056 1157.24 Q206.135 1161.82 206.135 1170.57 Q206.135 1179.3 203.056 1183.9 Q200 1188.49 194.19 1188.49 Q188.38 1188.49 185.301 1183.9 Q182.246 1179.3 182.246 1170.57 Q182.246 1161.82 185.301 1157.24 Q188.38 1152.63 194.19 1152.63 Z" fill="#000000" fill-rule="nonzero" fill-opacity="1"></path><path clip-path="url(#clip210)" d="M154.839 979.781 L162.477 979.781 L162.477 953.415 L154.167 955.082 L154.167 950.823 L162.431 949.156 L167.107 949.156 L167.107 979.781 L174.746 979.781 L174.746 983.716 L154.839 983.716 L154.839 979.781 Z" fill="#000000" fill-rule="nonzero" fill-opacity="1"></path><path clip-path="url(#clip210)" d="M194.19 952.235 Q190.579 952.235 188.75 955.8 Q186.945 959.341 186.945 966.471 Q186.945 973.577 188.75 977.142 Q190.579 980.684 194.19 980.684 Q197.825 980.684 199.63 977.142 Q201.459 973.577 201.459 966.471 Q201.459 959.341 199.63 955.8 Q197.825 952.235 194.19 952.235 M194.19 948.531 Q200 948.531 203.056 953.138 Q206.135 957.721 206.135 966.471 Q206.135 975.198 203.056 979.804 Q200 984.387 194.19 984.387 Q188.38 984.387 185.301 979.804 Q182.246 975.198 182.246 966.471 Q182.246 957.721 185.301 953.138 Q188.38 948.531 194.19 948.531 Z" fill="#000000" fill-rule="nonzero" fill-opacity="1"></path><path clip-path="url(#clip210)" d="M158.056 775.68 L174.376 775.68 L174.376 779.615 L152.431 779.615 L152.431 775.68 Q155.093 772.925 159.677 768.296 Q164.283 763.643 165.464 762.3 Q167.709 759.777 168.589 758.041 Q169.491 756.282 169.491 754.592 Q169.491 751.837 167.547 750.101 Q165.626 748.365 162.524 748.365 Q160.325 748.365 157.871 749.129 Q155.44 749.893 152.663 751.444 L152.663 746.722 Q155.487 745.587 157.94 745.009 Q160.394 744.43 162.431 744.43 Q167.802 744.43 170.996 747.115 Q174.19 749.8 174.19 754.291 Q174.19 756.421 173.38 758.342 Q172.593 760.24 170.487 762.833 Q169.908 763.504 166.806 766.722 Q163.704 769.916 158.056 775.68 Z" fill="#000000" fill-rule="nonzero" fill-opacity="1"></path><path clip-path="url(#clip210)" d="M194.19 748.134 Q190.579 748.134 188.75 751.699 Q186.945 755.24 186.945 762.37 Q186.945 769.476 188.75 773.041 Q190.579 776.583 194.19 776.583 Q197.825 776.583 199.63 773.041 Q201.459 769.476 201.459 762.37 Q201.459 755.24 199.63 751.699 Q197.825 748.134 194.19 748.134 M194.19 744.43 Q200 744.43 203.056 749.037 Q206.135 753.62 206.135 762.37 Q206.135 771.097 203.056 775.703 Q200 780.286 194.19 780.286 Q188.38 780.286 185.301 775.703 Q182.246 771.097 182.246 762.37 Q182.246 753.62 185.301 749.037 Q188.38 744.43 194.19 744.43 Z" fill="#000000" fill-rule="nonzero" fill-opacity="1"></path><path clip-path="url(#clip210)" d="M168.195 556.88 Q171.552 557.598 173.427 559.866 Q175.325 562.135 175.325 565.468 Q175.325 570.584 171.806 573.384 Q168.288 576.185 161.806 576.185 Q159.63 576.185 157.315 575.746 Q155.024 575.329 152.57 574.472 L152.57 569.959 Q154.515 571.093 156.829 571.672 Q159.144 572.25 161.667 572.25 Q166.065 572.25 168.357 570.514 Q170.672 568.778 170.672 565.468 Q170.672 562.412 168.519 560.699 Q166.39 558.963 162.57 558.963 L158.542 558.963 L158.542 555.121 L162.755 555.121 Q166.204 555.121 168.033 553.755 Q169.862 552.366 169.862 549.774 Q169.862 547.111 167.964 545.699 Q166.089 544.264 162.57 544.264 Q160.649 544.264 158.45 544.681 Q156.251 545.098 153.612 545.977 L153.612 541.811 Q156.274 541.07 158.589 540.699 Q160.927 540.329 162.987 540.329 Q168.311 540.329 171.413 542.76 Q174.514 545.167 174.514 549.287 Q174.514 552.158 172.871 554.148 Q171.227 556.116 168.195 556.88 Z" fill="#000000" fill-rule="nonzero" fill-opacity="1"></path><path clip-path="url(#clip210)" d="M194.19 544.033 Q190.579 544.033 188.75 547.598 Q186.945 551.139 186.945 558.269 Q186.945 565.375 188.75 568.94 Q190.579 572.482 194.19 572.482 Q197.825 572.482 199.63 568.94 Q201.459 565.375 201.459 558.269 Q201.459 551.139 199.63 547.598 Q197.825 544.033 194.19 544.033 M194.19 540.329 Q200 540.329 203.056 544.936 Q206.135 549.519 206.135 558.269 Q206.135 566.996 203.056 571.602 Q200 576.185 194.19 576.185 Q188.38 576.185 185.301 571.602 Q182.246 566.996 182.246 558.269 Q182.246 549.519 185.301 544.936 Q188.38 540.329 194.19 540.329 Z" fill="#000000" fill-rule="nonzero" fill-opacity="1"></path><path clip-path="url(#clip210)" d="M166.876 340.927 L155.07 359.376 L166.876 359.376 L166.876 340.927 M165.649 336.853 L171.528 336.853 L171.528 359.376 L176.459 359.376 L176.459 363.265 L171.528 363.265 L171.528 371.413 L166.876 371.413 L166.876 363.265 L151.274 363.265 L151.274 358.751 L165.649 336.853 Z" fill="#000000" fill-rule="nonzero" fill-opacity="1"></path><path clip-path="url(#clip210)" d="M194.19 339.932 Q190.579 339.932 188.75 343.497 Q186.945 347.038 186.945 354.168 Q186.945 361.274 188.75 364.839 Q190.579 368.381 194.19 368.381 Q197.825 368.381 199.63 364.839 Q201.459 361.274 201.459 354.168 Q201.459 347.038 199.63 343.497 Q197.825 339.932 194.19 339.932 M194.19 336.228 Q200 336.228 203.056 340.835 Q206.135 345.418 206.135 354.168 Q206.135 362.895 203.056 367.501 Q200 372.084 194.19 372.084 Q188.38 372.084 185.301 367.501 Q182.246 362.895 182.246 354.168 Q182.246 345.418 185.301 340.835 Q188.38 336.228 194.19 336.228 Z" fill="#000000" fill-rule="nonzero" fill-opacity="1"></path><path clip-path="url(#clip210)" d="M154.075 132.752 L172.431 132.752 L172.431 136.687 L158.357 136.687 L158.357 145.16 Q159.376 144.812 160.394 144.65 Q161.413 144.465 162.431 144.465 Q168.218 144.465 171.598 147.636 Q174.977 150.808 174.977 156.224 Q174.977 161.803 171.505 164.905 Q168.033 167.983 161.714 167.983 Q159.538 167.983 157.269 167.613 Q155.024 167.243 152.616 166.502 L152.616 161.803 Q154.7 162.937 156.922 163.493 Q159.144 164.048 161.621 164.048 Q165.626 164.048 167.964 161.942 Q170.302 159.835 170.302 156.224 Q170.302 152.613 167.964 150.507 Q165.626 148.4 161.621 148.4 Q159.746 148.4 157.871 148.817 Q156.019 149.234 154.075 150.113 L154.075 132.752 Z" fill="#000000" fill-rule="nonzero" fill-opacity="1"></path><path clip-path="url(#clip210)" d="M194.19 135.831 Q190.579 135.831 188.75 139.396 Q186.945 142.937 186.945 150.067 Q186.945 157.173 188.75 160.738 Q190.579 164.28 194.19 164.28 Q197.825 164.28 199.63 160.738 Q201.459 157.173 201.459 150.067 Q201.459 142.937 199.63 139.396 Q197.825 135.831 194.19 135.831 M194.19 132.127 Q200 132.127 203.056 136.734 Q206.135 141.317 206.135 150.067 Q206.135 158.794 203.056 163.4 Q200 167.983 194.19 167.983 Q188.38 167.983 185.301 163.4 Q182.246 158.794 182.246 150.067 Q182.246 141.317 185.301 136.734 Q188.38 132.127 194.19 132.127 Z" fill="#000000" fill-rule="nonzero" fill-opacity="1"></path><path clip-path="url(#clip210)" d="M64.0042 798.949 L16.4842 817.091 L16.4842 810.375 L56.4926 795.32 L16.4842 780.233 L16.4842 773.549 L64.0042 791.66 L64.0042 798.949 Z" fill="#000000" fill-rule="nonzero" fill-opacity="1"></path><path clip-path="url(#clip210)" d="M46.0847 755.725 Q46.0847 762.823 47.7079 765.56 Q49.3312 768.298 53.2461 768.298 Q56.3653 768.298 58.2114 766.261 Q60.0256 764.192 60.0256 760.659 Q60.0256 755.789 56.5881 752.861 Q53.1188 749.901 47.3897 749.901 L46.0847 749.901 L46.0847 755.725 M43.6657 744.044 L64.0042 744.044 L64.0042 749.901 L58.5933 749.901 Q61.8398 751.906 63.3994 754.898 Q64.9272 757.89 64.9272 762.218 Q64.9272 767.693 61.8716 770.939 Q58.7843 774.154 53.6281 774.154 Q47.6125 774.154 44.5569 770.144 Q41.5014 766.102 41.5014 758.113 L41.5014 749.901 L40.9285 749.901 Q36.8862 749.901 34.6901 752.574 Q32.4621 755.216 32.4621 760.022 Q32.4621 763.078 33.1941 765.974 Q33.9262 768.871 35.3903 771.544 L29.9795 771.544 Q28.7381 768.33 28.1334 765.306 Q27.4968 762.282 27.4968 759.418 Q27.4968 751.683 31.5072 747.864 Q35.5176 744.044 43.6657 744.044 Z" fill="#000000" fill-rule="nonzero" fill-opacity="1"></path><path clip-path="url(#clip210)" d="M14.479 731.981 L14.479 726.125 L64.0042 726.125 L64.0042 731.981 L14.479 731.981 Z" fill="#000000" fill-rule="nonzero" fill-opacity="1"></path><path clip-path="url(#clip210)" d="M32.4621 700.057 Q32.4621 704.768 36.1542 707.505 Q39.8145 710.242 46.212 710.242 Q52.6095 710.242 56.3017 707.537 Q59.9619 704.8 59.9619 700.057 Q59.9619 695.379 56.2698 692.641 Q52.5777 689.904 46.212 689.904 Q39.8781 689.904 36.186 692.641 Q32.4621 695.379 32.4621 700.057 M27.4968 700.057 Q27.4968 692.419 32.4621 688.058 Q37.4273 683.697 46.212 683.697 Q54.9649 683.697 59.9619 688.058 Q64.9272 692.419 64.9272 700.057 Q64.9272 707.728 59.9619 712.089 Q54.9649 716.417 46.212 716.417 Q37.4273 716.417 32.4621 712.089 Q27.4968 707.728 27.4968 700.057 Z" fill="#000000" fill-rule="nonzero" fill-opacity="1"></path><path clip-path="url(#clip210)" d="M33.8307 653.333 Q33.2578 654.32 33.0032 655.497 Q32.7167 656.643 32.7167 658.044 Q32.7167 663.009 35.9632 665.683 Q39.1779 668.324 45.2253 668.324 L64.0042 668.324 L64.0042 674.213 L28.3562 674.213 L28.3562 668.324 L33.8944 668.324 Q30.6479 666.478 29.0883 663.518 Q27.4968 660.558 27.4968 656.325 Q27.4968 655.72 27.5923 654.988 Q27.656 654.256 27.8151 653.365 L33.8307 653.333 Z" fill="#000000" fill-rule="nonzero" fill-opacity="1"></path><polyline clip-path="url(#clip212)" style="stroke:#009af9; stroke-linecap:round; stroke-linejoin:round; stroke-width:4; stroke-opacity:1; fill:none" points="301.869,1068.49 320.205,1044.45 369.847,983.085 448.224,895.49 548.058,797.09 678.668,685.783 836.869,571.69 1023.65,460.079 1227.62,361.047 1485.99,262.778 1803.05,174.212 2193.34,100.357 2293.02,86.1857 "></polyline>
<polyline clip-path="url(#clip212)" style="stroke:#e26f46; stroke-linecap:round; stroke-linejoin:round; stroke-width:4; stroke-opacity:1; fill:none" points="301.869,1068.49 320.205,1067 369.847,1065.12 448.224,1067.73 548.058,1078.53 678.668,1100.94 836.869,1134.77 1023.65,1177.83 1227.62,1223.6 1485.99,1275.52 1803.05,1327.55 2193.34,1374.76 2293.02,1384.24 "></polyline>
<polyline clip-path="url(#clip212)" style="stroke:#3da44d; stroke-linecap:round; stroke-linejoin:round; stroke-width:4; stroke-opacity:1; fill:none" points="301.869,1160.33 320.205,1160.54 369.847,1161.02 448.224,1161.61 548.058,1162.17 678.668,1162.68 836.869,1163.09 1023.65,1163.4 1227.62,1163.62 1485.99,1163.78 1803.05,1163.89 2193.34,1163.95 2293.02,1163.96 "></polyline>
<path clip-path="url(#clip210)" d="M312.489 300.469 L1070.17 300.469 L1070.17 93.1086 L312.489 93.1086  Z" fill="#ffffff" fill-rule="evenodd" fill-opacity="1"></path>
<polyline clip-path="url(#clip210)" style="stroke:#000000; stroke-linecap:round; stroke-linejoin:round; stroke-width:4; stroke-opacity:1; fill:none" points="312.489,300.469 1070.17,300.469 1070.17,93.1086 312.489,93.1086 312.489,300.469 "></polyline>
<polyline clip-path="url(#clip210)" style="stroke:#009af9; stroke-linecap:round; stroke-linejoin:round; stroke-width:4; stroke-opacity:1; fill:none" points="335.94,144.949 476.648,144.949 "></polyline>
<path clip-path="url(#clip210)" d="M527.97 130.331 L527.97 135.261 Q525.609 133.062 522.923 131.974 Q520.261 130.886 517.252 130.886 Q511.326 130.886 508.178 134.52 Q505.03 138.132 505.03 144.983 Q505.03 151.812 508.178 155.446 Q511.326 159.057 517.252 159.057 Q520.261 159.057 522.923 157.969 Q525.609 156.881 527.97 154.682 L527.97 159.567 Q525.516 161.233 522.761 162.067 Q520.03 162.9 516.974 162.9 Q509.127 162.9 504.613 158.108 Q500.099 153.293 500.099 144.983 Q500.099 136.65 504.613 131.858 Q509.127 127.044 516.974 127.044 Q520.076 127.044 522.808 127.877 Q525.562 128.687 527.97 130.331 Z" fill="#000000" fill-rule="nonzero" fill-opacity="1"></path><path clip-path="url(#clip210)" d="M546.789 149.196 Q541.627 149.196 539.636 150.377 Q537.646 151.557 537.646 154.405 Q537.646 156.673 539.127 158.016 Q540.632 159.335 543.201 159.335 Q546.743 159.335 548.872 156.835 Q551.025 154.312 551.025 150.145 L551.025 149.196 L546.789 149.196 M555.284 147.437 L555.284 162.229 L551.025 162.229 L551.025 158.293 Q549.567 160.655 547.391 161.789 Q545.215 162.9 542.067 162.9 Q538.085 162.9 535.724 160.678 Q533.386 158.432 533.386 154.682 Q533.386 150.307 536.303 148.085 Q539.243 145.863 545.053 145.863 L551.025 145.863 L551.025 145.446 Q551.025 142.507 549.081 140.909 Q547.159 139.289 543.664 139.289 Q541.442 139.289 539.335 139.821 Q537.229 140.354 535.284 141.419 L535.284 137.483 Q537.622 136.581 539.821 136.141 Q542.021 135.678 544.104 135.678 Q549.729 135.678 552.507 138.594 Q555.284 141.511 555.284 147.437 Z" fill="#000000" fill-rule="nonzero" fill-opacity="1"></path><path clip-path="url(#clip210)" d="M579.081 140.284 Q578.363 139.868 577.506 139.682 Q576.673 139.474 575.655 139.474 Q572.044 139.474 570.099 141.835 Q568.178 144.173 568.178 148.571 L568.178 162.229 L563.895 162.229 L563.895 136.303 L568.178 136.303 L568.178 140.331 Q569.52 137.969 571.673 136.835 Q573.826 135.678 576.905 135.678 Q577.344 135.678 577.877 135.747 Q578.409 135.794 579.057 135.909 L579.081 140.284 Z" fill="#000000" fill-rule="nonzero" fill-opacity="1"></path><path clip-path="url(#clip210)" d="M599.775 148.965 Q599.775 144.335 597.854 141.789 Q595.955 139.243 592.506 139.243 Q589.08 139.243 587.159 141.789 Q585.261 144.335 585.261 148.965 Q585.261 153.571 587.159 156.118 Q589.08 158.664 592.506 158.664 Q595.955 158.664 597.854 156.118 Q599.775 153.571 599.775 148.965 M604.034 159.011 Q604.034 165.631 601.094 168.849 Q598.155 172.09 592.09 172.09 Q589.844 172.09 587.854 171.742 Q585.863 171.418 583.988 170.724 L583.988 166.58 Q585.863 167.599 587.692 168.085 Q589.52 168.571 591.418 168.571 Q595.608 168.571 597.692 166.372 Q599.775 164.196 599.775 159.775 L599.775 157.668 Q598.455 159.96 596.395 161.094 Q594.335 162.229 591.465 162.229 Q586.696 162.229 583.78 158.594 Q580.863 154.96 580.863 148.965 Q580.863 142.946 583.78 139.312 Q586.696 135.678 591.465 135.678 Q594.335 135.678 596.395 136.812 Q598.455 137.946 599.775 140.238 L599.775 136.303 L604.034 136.303 L604.034 159.011 Z" fill="#000000" fill-rule="nonzero" fill-opacity="1"></path><path clip-path="url(#clip210)" d="M624.59 149.196 Q619.428 149.196 617.437 150.377 Q615.446 151.557 615.446 154.405 Q615.446 156.673 616.928 158.016 Q618.432 159.335 621.002 159.335 Q624.543 159.335 626.673 156.835 Q628.826 154.312 628.826 150.145 L628.826 149.196 L624.59 149.196 M633.085 147.437 L633.085 162.229 L628.826 162.229 L628.826 158.293 Q627.367 160.655 625.191 161.789 Q623.015 162.9 619.867 162.9 Q615.886 162.9 613.525 160.678 Q611.187 158.432 611.187 154.682 Q611.187 150.307 614.104 148.085 Q617.043 145.863 622.853 145.863 L628.826 145.863 L628.826 145.446 Q628.826 142.507 626.881 140.909 Q624.96 139.289 621.465 139.289 Q619.242 139.289 617.136 139.821 Q615.029 140.354 613.085 141.419 L613.085 137.483 Q615.423 136.581 617.622 136.141 Q619.821 135.678 621.904 135.678 Q627.529 135.678 630.307 138.594 Q633.085 141.511 633.085 147.437 Z" fill="#000000" fill-rule="nonzero" fill-opacity="1"></path><path clip-path="url(#clip210)" d="M671.14 130.84 Q666.048 130.84 663.038 134.636 Q660.052 138.432 660.052 144.983 Q660.052 151.511 663.038 155.307 Q666.048 159.104 671.14 159.104 Q676.233 159.104 679.196 155.307 Q682.182 151.511 682.182 144.983 Q682.182 138.432 679.196 134.636 Q676.233 130.84 671.14 130.84 M671.14 127.044 Q678.409 127.044 682.761 131.928 Q687.112 136.789 687.112 144.983 Q687.112 153.155 682.761 158.039 Q678.409 162.9 671.14 162.9 Q663.849 162.9 659.474 158.039 Q655.122 153.178 655.122 144.983 Q655.122 136.789 659.474 131.928 Q663.849 127.044 671.14 127.044 Z" fill="#000000" fill-rule="nonzero" fill-opacity="1"></path><path clip-path="url(#clip210)" d="M709.265 140.284 Q708.547 139.868 707.691 139.682 Q706.858 139.474 705.839 139.474 Q702.228 139.474 700.284 141.835 Q698.362 144.173 698.362 148.571 L698.362 162.229 L694.08 162.229 L694.08 136.303 L698.362 136.303 L698.362 140.331 Q699.705 137.969 701.858 136.835 Q704.01 135.678 707.089 135.678 Q707.529 135.678 708.061 135.747 Q708.594 135.794 709.242 135.909 L709.265 140.284 Z" fill="#000000" fill-rule="nonzero" fill-opacity="1"></path><path clip-path="url(#clip210)" d="M729.959 148.965 Q729.959 144.335 728.038 141.789 Q726.14 139.243 722.691 139.243 Q719.265 139.243 717.344 141.789 Q715.446 144.335 715.446 148.965 Q715.446 153.571 717.344 156.118 Q719.265 158.664 722.691 158.664 Q726.14 158.664 728.038 156.118 Q729.959 153.571 729.959 148.965 M734.219 159.011 Q734.219 165.631 731.279 168.849 Q728.339 172.09 722.274 172.09 Q720.029 172.09 718.038 171.742 Q716.047 171.418 714.172 170.724 L714.172 166.58 Q716.047 167.599 717.876 168.085 Q719.705 168.571 721.603 168.571 Q725.793 168.571 727.876 166.372 Q729.959 164.196 729.959 159.775 L729.959 157.668 Q728.64 159.96 726.58 161.094 Q724.52 162.229 721.649 162.229 Q716.881 162.229 713.964 158.594 Q711.047 154.96 711.047 148.965 Q711.047 142.946 713.964 139.312 Q716.881 135.678 721.649 135.678 Q724.52 135.678 726.58 136.812 Q728.64 137.946 729.959 140.238 L729.959 136.303 L734.219 136.303 L734.219 159.011 Z" fill="#000000" fill-rule="nonzero" fill-opacity="1"></path><path clip-path="url(#clip210)" d="M754.774 149.196 Q749.612 149.196 747.621 150.377 Q745.631 151.557 745.631 154.405 Q745.631 156.673 747.112 158.016 Q748.617 159.335 751.186 159.335 Q754.728 159.335 756.857 156.835 Q759.01 154.312 759.01 150.145 L759.01 149.196 L754.774 149.196 M763.269 147.437 L763.269 162.229 L759.01 162.229 L759.01 158.293 Q757.552 160.655 755.376 161.789 Q753.2 162.9 750.052 162.9 Q746.07 162.9 743.709 160.678 Q741.371 158.432 741.371 154.682 Q741.371 150.307 744.288 148.085 Q747.228 145.863 753.038 145.863 L759.01 145.863 L759.01 145.446 Q759.01 142.507 757.066 140.909 Q755.144 139.289 751.649 139.289 Q749.427 139.289 747.32 139.821 Q745.214 140.354 743.269 141.419 L743.269 137.483 Q745.607 136.581 747.806 136.141 Q750.006 135.678 752.089 135.678 Q757.714 135.678 760.492 138.594 Q763.269 141.511 763.269 147.437 M750.561 124.312 L753.987 124.312 L759.658 133.016 L756.441 133.016 L752.274 127.345 L748.107 133.016 L744.89 133.016 L750.561 124.312 Z" fill="#000000" fill-rule="nonzero" fill-opacity="1"></path><path clip-path="url(#clip210)" d="M793.593 146.581 L793.593 162.229 L789.334 162.229 L789.334 146.719 Q789.334 143.039 787.899 141.21 Q786.464 139.382 783.593 139.382 Q780.144 139.382 778.154 141.581 Q776.163 143.78 776.163 147.576 L776.163 162.229 L771.88 162.229 L771.88 136.303 L776.163 136.303 L776.163 140.331 Q777.691 137.993 779.751 136.835 Q781.834 135.678 784.542 135.678 Q789.01 135.678 791.302 138.456 Q793.593 141.21 793.593 146.581 Z" fill="#000000" fill-rule="nonzero" fill-opacity="1"></path><path clip-path="url(#clip210)" d="M802.089 136.303 L806.348 136.303 L806.348 162.229 L802.089 162.229 L802.089 136.303 M802.089 126.21 L806.348 126.21 L806.348 131.604 L802.089 131.604 L802.089 126.21 Z" fill="#000000" fill-rule="nonzero" fill-opacity="1"></path><path clip-path="url(#clip210)" d="M833.917 137.298 L833.917 141.28 Q832.112 140.284 830.283 139.798 Q828.477 139.289 826.626 139.289 Q822.482 139.289 820.19 141.928 Q817.899 144.544 817.899 149.289 Q817.899 154.034 820.19 156.673 Q822.482 159.289 826.626 159.289 Q828.477 159.289 830.283 158.803 Q832.112 158.293 833.917 157.298 L833.917 161.233 Q832.135 162.067 830.213 162.483 Q828.315 162.9 826.163 162.9 Q820.306 162.9 816.857 159.219 Q813.408 155.539 813.408 149.289 Q813.408 142.946 816.88 139.312 Q820.376 135.678 826.44 135.678 Q828.408 135.678 830.283 136.095 Q832.158 136.488 833.917 137.298 Z" fill="#000000" fill-rule="nonzero" fill-opacity="1"></path><path clip-path="url(#clip210)" d="M853.107 149.196 Q847.945 149.196 845.954 150.377 Q843.963 151.557 843.963 154.405 Q843.963 156.673 845.445 158.016 Q846.949 159.335 849.519 159.335 Q853.061 159.335 855.19 156.835 Q857.343 154.312 857.343 150.145 L857.343 149.196 L853.107 149.196 M861.602 147.437 L861.602 162.229 L857.343 162.229 L857.343 158.293 Q855.885 160.655 853.709 161.789 Q851.533 162.9 848.385 162.9 Q844.403 162.9 842.042 160.678 Q839.704 158.432 839.704 154.682 Q839.704 150.307 842.621 148.085 Q845.561 145.863 851.371 145.863 L857.343 145.863 L857.343 145.446 Q857.343 142.507 855.399 140.909 Q853.477 139.289 849.982 139.289 Q847.76 139.289 845.653 139.821 Q843.547 140.354 841.602 141.419 L841.602 137.483 Q843.94 136.581 846.139 136.141 Q848.338 135.678 850.422 135.678 Q856.047 135.678 858.824 138.594 Q861.602 141.511 861.602 147.437 Z" fill="#000000" fill-rule="nonzero" fill-opacity="1"></path><polyline clip-path="url(#clip210)" style="stroke:#e26f46; stroke-linecap:round; stroke-linejoin:round; stroke-width:4; stroke-opacity:1; fill:none" points="335.94,196.789 476.648,196.789 "></polyline>
<path clip-path="url(#clip210)" d="M516.118 182.68 Q511.025 182.68 508.016 186.476 Q505.03 190.272 505.03 196.823 Q505.03 203.351 508.016 207.147 Q511.025 210.944 516.118 210.944 Q521.21 210.944 524.173 207.147 Q527.16 203.351 527.16 196.823 Q527.16 190.272 524.173 186.476 Q521.21 182.68 516.118 182.68 M516.118 178.884 Q523.386 178.884 527.738 183.768 Q532.09 188.629 532.09 196.823 Q532.09 204.995 527.738 209.879 Q523.386 214.74 516.118 214.74 Q508.826 214.74 504.451 209.879 Q500.099 205.018 500.099 196.823 Q500.099 188.629 504.451 183.768 Q508.826 178.884 516.118 178.884 Z" fill="#000000" fill-rule="nonzero" fill-opacity="1"></path><path clip-path="url(#clip210)" d="M560.77 188.143 L551.396 200.759 L561.257 214.069 L556.233 214.069 L548.687 203.883 L541.141 214.069 L536.118 214.069 L546.187 200.504 L536.974 188.143 L541.997 188.143 L548.872 197.379 L555.747 188.143 L560.77 188.143 Z" fill="#000000" fill-rule="nonzero" fill-opacity="1"></path><path clip-path="url(#clip210)" d="M567.275 188.143 L571.534 188.143 L571.534 214.069 L567.275 214.069 L567.275 188.143 M567.275 178.05 L571.534 178.05 L571.534 183.444 L567.275 183.444 L567.275 178.05 Z" fill="#000000" fill-rule="nonzero" fill-opacity="1"></path><path clip-path="url(#clip210)" d="M597.506 200.805 Q597.506 196.175 595.585 193.629 Q593.687 191.083 590.238 191.083 Q586.812 191.083 584.891 193.629 Q582.993 196.175 582.993 200.805 Q582.993 205.411 584.891 207.958 Q586.812 210.504 590.238 210.504 Q593.687 210.504 595.585 207.958 Q597.506 205.411 597.506 200.805 M601.766 210.851 Q601.766 217.471 598.826 220.689 Q595.886 223.93 589.821 223.93 Q587.576 223.93 585.585 223.582 Q583.594 223.258 581.719 222.564 L581.719 218.42 Q583.594 219.439 585.423 219.925 Q587.252 220.411 589.15 220.411 Q593.34 220.411 595.423 218.212 Q597.506 216.036 597.506 211.615 L597.506 209.508 Q596.187 211.8 594.127 212.934 Q592.067 214.069 589.196 214.069 Q584.428 214.069 581.511 210.434 Q578.594 206.8 578.594 200.805 Q578.594 194.786 581.511 191.152 Q584.428 187.518 589.196 187.518 Q592.067 187.518 594.127 188.652 Q596.187 189.786 597.506 192.078 L597.506 188.143 L601.766 188.143 L601.766 210.851 Z" fill="#000000" fill-rule="nonzero" fill-opacity="1"></path><path clip-path="url(#clip210)" d="M632.715 200.041 L632.715 202.124 L613.131 202.124 Q613.409 206.522 615.77 208.837 Q618.154 211.129 622.39 211.129 Q624.844 211.129 627.136 210.527 Q629.451 209.925 631.719 208.721 L631.719 212.749 Q629.427 213.721 627.02 214.231 Q624.613 214.74 622.136 214.74 Q615.932 214.74 612.298 211.129 Q608.687 207.518 608.687 201.36 Q608.687 194.995 612.113 191.268 Q615.562 187.518 621.395 187.518 Q626.627 187.518 629.659 190.897 Q632.715 194.254 632.715 200.041 M628.455 198.791 Q628.409 195.296 626.488 193.212 Q624.59 191.129 621.441 191.129 Q617.877 191.129 615.724 193.143 Q613.594 195.157 613.27 198.814 L628.455 198.791 M619.428 176.152 L622.853 176.152 L628.525 184.856 L625.307 184.856 L621.141 179.185 L616.974 184.856 L613.756 184.856 L619.428 176.152 Z" fill="#000000" fill-rule="nonzero" fill-opacity="1"></path><path clip-path="url(#clip210)" d="M661.256 198.421 L661.256 214.069 L656.997 214.069 L656.997 198.559 Q656.997 194.879 655.562 193.05 Q654.126 191.222 651.256 191.222 Q647.807 191.222 645.816 193.421 Q643.826 195.62 643.826 199.416 L643.826 214.069 L639.543 214.069 L639.543 188.143 L643.826 188.143 L643.826 192.171 Q645.353 189.833 647.414 188.675 Q649.497 187.518 652.205 187.518 Q656.673 187.518 658.964 190.296 Q661.256 193.05 661.256 198.421 Z" fill="#000000" fill-rule="nonzero" fill-opacity="1"></path><path clip-path="url(#clip210)" d="M669.751 188.143 L674.011 188.143 L674.011 214.069 L669.751 214.069 L669.751 188.143 M669.751 178.05 L674.011 178.05 L674.011 183.444 L669.751 183.444 L669.751 178.05 Z" fill="#000000" fill-rule="nonzero" fill-opacity="1"></path><path clip-path="url(#clip210)" d="M692.969 191.129 Q689.543 191.129 687.552 193.814 Q685.561 196.476 685.561 201.129 Q685.561 205.782 687.529 208.467 Q689.52 211.129 692.969 211.129 Q696.372 211.129 698.362 208.444 Q700.353 205.758 700.353 201.129 Q700.353 196.522 698.362 193.837 Q696.372 191.129 692.969 191.129 M692.969 187.518 Q698.524 187.518 701.696 191.129 Q704.867 194.74 704.867 201.129 Q704.867 207.495 701.696 211.129 Q698.524 214.74 692.969 214.74 Q687.39 214.74 684.219 211.129 Q681.071 207.495 681.071 201.129 Q681.071 194.74 684.219 191.129 Q687.39 187.518 692.969 187.518 Z" fill="#000000" fill-rule="nonzero" fill-opacity="1"></path><path clip-path="url(#clip210)" d="M731.858 183.351 L731.858 210.226 L737.506 210.226 Q744.658 210.226 747.969 206.985 Q751.302 203.745 751.302 196.754 Q751.302 189.809 747.969 186.592 Q744.658 183.351 737.506 183.351 L731.858 183.351 M727.182 179.509 L736.788 179.509 Q746.834 179.509 751.533 183.698 Q756.232 187.865 756.232 196.754 Q756.232 205.689 751.51 209.879 Q746.788 214.069 736.788 214.069 L727.182 214.069 L727.182 179.509 Z" fill="#000000" fill-rule="nonzero" fill-opacity="1"></path><path clip-path="url(#clip210)" d="M763.501 188.143 L767.76 188.143 L767.76 214.069 L763.501 214.069 L763.501 188.143 M763.501 178.05 L767.76 178.05 L767.76 183.444 L763.501 183.444 L763.501 178.05 Z" fill="#000000" fill-rule="nonzero" fill-opacity="1"></path><path clip-path="url(#clip210)" d="M793.2 188.907 L793.2 192.934 Q791.394 192.009 789.45 191.546 Q787.505 191.083 785.422 191.083 Q782.251 191.083 780.654 192.055 Q779.079 193.027 779.079 194.971 Q779.079 196.453 780.214 197.309 Q781.348 198.143 784.774 198.907 L786.232 199.231 Q790.769 200.203 792.667 201.985 Q794.589 203.745 794.589 206.916 Q794.589 210.527 791.718 212.633 Q788.871 214.74 783.871 214.74 Q781.788 214.74 779.519 214.323 Q777.274 213.93 774.774 213.12 L774.774 208.721 Q777.135 209.948 779.427 210.573 Q781.718 211.175 783.964 211.175 Q786.973 211.175 788.593 210.157 Q790.214 209.115 790.214 207.24 Q790.214 205.504 789.033 204.578 Q787.876 203.652 783.917 202.796 L782.436 202.448 Q778.478 201.615 776.718 199.902 Q774.959 198.166 774.959 195.157 Q774.959 191.499 777.552 189.509 Q780.144 187.518 784.913 187.518 Q787.274 187.518 789.357 187.865 Q791.441 188.212 793.2 188.907 Z" fill="#000000" fill-rule="nonzero" fill-opacity="1"></path><path clip-path="url(#clip210)" d="M817.899 188.907 L817.899 192.934 Q816.093 192.009 814.149 191.546 Q812.204 191.083 810.121 191.083 Q806.95 191.083 805.352 192.055 Q803.778 193.027 803.778 194.971 Q803.778 196.453 804.913 197.309 Q806.047 198.143 809.473 198.907 L810.931 199.231 Q815.468 200.203 817.366 201.985 Q819.288 203.745 819.288 206.916 Q819.288 210.527 816.417 212.633 Q813.57 214.74 808.57 214.74 Q806.487 214.74 804.218 214.323 Q801.973 213.93 799.473 213.12 L799.473 208.721 Q801.834 209.948 804.126 210.573 Q806.417 211.175 808.663 211.175 Q811.672 211.175 813.292 210.157 Q814.913 209.115 814.913 207.24 Q814.913 205.504 813.732 204.578 Q812.575 203.652 808.616 202.796 L807.135 202.448 Q803.177 201.615 801.417 199.902 Q799.658 198.166 799.658 195.157 Q799.658 191.499 802.251 189.509 Q804.843 187.518 809.612 187.518 Q811.973 187.518 814.056 187.865 Q816.139 188.212 817.899 188.907 Z" fill="#000000" fill-rule="nonzero" fill-opacity="1"></path><path clip-path="url(#clip210)" d="M836.116 191.129 Q832.69 191.129 830.7 193.814 Q828.709 196.476 828.709 201.129 Q828.709 205.782 830.676 208.467 Q832.667 211.129 836.116 211.129 Q839.519 211.129 841.51 208.444 Q843.5 205.758 843.5 201.129 Q843.5 196.522 841.51 193.837 Q839.519 191.129 836.116 191.129 M836.116 187.518 Q841.672 187.518 844.843 191.129 Q848.014 194.74 848.014 201.129 Q848.014 207.495 844.843 211.129 Q841.672 214.74 836.116 214.74 Q830.538 214.74 827.366 211.129 Q824.218 207.495 824.218 201.129 Q824.218 194.74 827.366 191.129 Q830.538 187.518 836.116 187.518 Z" fill="#000000" fill-rule="nonzero" fill-opacity="1"></path><path clip-path="url(#clip210)" d="M855.074 178.05 L859.334 178.05 L859.334 214.069 L855.074 214.069 L855.074 178.05 Z" fill="#000000" fill-rule="nonzero" fill-opacity="1"></path><path clip-path="url(#clip210)" d="M865.19 188.143 L869.704 188.143 L877.806 209.902 L885.908 188.143 L890.421 188.143 L880.699 214.069 L874.912 214.069 L865.19 188.143 Z" fill="#000000" fill-rule="nonzero" fill-opacity="1"></path><path clip-path="url(#clip210)" d="M896.301 188.143 L900.56 188.143 L900.56 214.069 L896.301 214.069 L896.301 188.143 M896.301 178.05 L900.56 178.05 L900.56 183.444 L896.301 183.444 L896.301 178.05 Z" fill="#000000" fill-rule="nonzero" fill-opacity="1"></path><path clip-path="url(#clip210)" d="M926.532 192.078 L926.532 178.05 L930.792 178.05 L930.792 214.069 L926.532 214.069 L926.532 210.18 Q925.19 212.495 923.13 213.629 Q921.093 214.74 918.222 214.74 Q913.523 214.74 910.56 210.99 Q907.62 207.24 907.62 201.129 Q907.62 195.018 910.56 191.268 Q913.523 187.518 918.222 187.518 Q921.093 187.518 923.13 188.652 Q925.19 189.763 926.532 192.078 M912.019 201.129 Q912.019 205.828 913.94 208.513 Q915.884 211.175 919.264 211.175 Q922.644 211.175 924.588 208.513 Q926.532 205.828 926.532 201.129 Q926.532 196.43 924.588 193.768 Q922.644 191.083 919.264 191.083 Q915.884 191.083 913.94 193.768 Q912.019 196.43 912.019 201.129 Z" fill="#000000" fill-rule="nonzero" fill-opacity="1"></path><path clip-path="url(#clip210)" d="M949.611 191.129 Q946.185 191.129 944.194 193.814 Q942.204 196.476 942.204 201.129 Q942.204 205.782 944.171 208.467 Q946.162 211.129 949.611 211.129 Q953.014 211.129 955.004 208.444 Q956.995 205.758 956.995 201.129 Q956.995 196.522 955.004 193.837 Q953.014 191.129 949.611 191.129 M949.611 187.518 Q955.166 187.518 958.338 191.129 Q961.509 194.74 961.509 201.129 Q961.509 207.495 958.338 211.129 Q955.166 214.74 949.611 214.74 Q944.032 214.74 940.861 211.129 Q937.713 207.495 937.713 201.129 Q937.713 194.74 940.861 191.129 Q944.032 187.518 949.611 187.518 Z" fill="#000000" fill-rule="nonzero" fill-opacity="1"></path><polyline clip-path="url(#clip210)" style="stroke:#3da44d; stroke-linecap:round; stroke-linejoin:round; stroke-width:4; stroke-opacity:1; fill:none" points="335.94,248.629 476.648,248.629 "></polyline>
<path clip-path="url(#clip210)" d="M504.775 235.191 L504.775 248.177 L510.655 248.177 Q513.919 248.177 515.701 246.487 Q517.484 244.798 517.484 241.673 Q517.484 238.571 515.701 236.881 Q513.919 235.191 510.655 235.191 L504.775 235.191 M500.099 231.349 L510.655 231.349 Q516.465 231.349 519.428 233.987 Q522.414 236.603 522.414 241.673 Q522.414 246.788 519.428 249.404 Q516.465 252.02 510.655 252.02 L504.775 252.02 L504.775 265.909 L500.099 265.909 L500.099 231.349 Z" fill="#000000" fill-rule="nonzero" fill-opacity="1"></path><path clip-path="url(#clip210)" d="M536.859 242.969 Q533.433 242.969 531.442 245.654 Q529.451 248.316 529.451 252.969 Q529.451 257.622 531.419 260.307 Q533.409 262.969 536.859 262.969 Q540.261 262.969 542.252 260.284 Q544.243 257.598 544.243 252.969 Q544.243 248.362 542.252 245.677 Q540.261 242.969 536.859 242.969 M536.859 239.358 Q542.414 239.358 545.585 242.969 Q548.757 246.58 548.757 252.969 Q548.757 259.335 545.585 262.969 Q542.414 266.58 536.859 266.58 Q531.28 266.58 528.109 262.969 Q524.96 259.335 524.96 252.969 Q524.96 246.58 528.109 242.969 Q531.28 239.358 536.859 239.358 Z" fill="#000000" fill-rule="nonzero" fill-opacity="1"></path><path clip-path="url(#clip210)" d="M559.937 262.02 L559.937 275.77 L555.655 275.77 L555.655 239.983 L559.937 239.983 L559.937 243.918 Q561.28 241.603 563.317 240.492 Q565.377 239.358 568.224 239.358 Q572.946 239.358 575.886 243.108 Q578.849 246.858 578.849 252.969 Q578.849 259.08 575.886 262.83 Q572.946 266.58 568.224 266.58 Q565.377 266.58 563.317 265.469 Q561.28 264.335 559.937 262.02 M574.428 252.969 Q574.428 248.27 572.483 245.608 Q570.562 242.923 567.182 242.923 Q563.803 242.923 561.858 245.608 Q559.937 248.27 559.937 252.969 Q559.937 257.668 561.858 260.353 Q563.803 263.015 567.182 263.015 Q570.562 263.015 572.483 260.353 Q574.428 257.668 574.428 252.969 Z" fill="#000000" fill-rule="nonzero" fill-opacity="1"></path><path clip-path="url(#clip210)" d="M585.469 255.677 L585.469 239.983 L589.729 239.983 L589.729 255.515 Q589.729 259.196 591.164 261.048 Q592.599 262.876 595.469 262.876 Q598.918 262.876 600.909 260.677 Q602.923 258.478 602.923 254.682 L602.923 239.983 L607.182 239.983 L607.182 265.909 L602.923 265.909 L602.923 261.927 Q601.372 264.288 599.312 265.446 Q597.275 266.58 594.567 266.58 Q590.099 266.58 587.784 263.802 Q585.469 261.024 585.469 255.677 M596.187 239.358 L596.187 239.358 Z" fill="#000000" fill-rule="nonzero" fill-opacity="1"></path><path clip-path="url(#clip210)" d="M615.955 229.89 L620.215 229.89 L620.215 265.909 L615.955 265.909 L615.955 229.89 Z" fill="#000000" fill-rule="nonzero" fill-opacity="1"></path><path clip-path="url(#clip210)" d="M640.909 252.876 Q635.747 252.876 633.756 254.057 Q631.765 255.237 631.765 258.085 Q631.765 260.353 633.247 261.696 Q634.752 263.015 637.321 263.015 Q640.863 263.015 642.992 260.515 Q645.145 257.992 645.145 253.825 L645.145 252.876 L640.909 252.876 M649.404 251.117 L649.404 265.909 L645.145 265.909 L645.145 261.973 Q643.687 264.335 641.511 265.469 Q639.335 266.58 636.187 266.58 Q632.205 266.58 629.844 264.358 Q627.506 262.112 627.506 258.362 Q627.506 253.987 630.423 251.765 Q633.363 249.543 639.173 249.543 L645.145 249.543 L645.145 249.126 Q645.145 246.187 643.201 244.589 Q641.279 242.969 637.784 242.969 Q635.562 242.969 633.455 243.501 Q631.349 244.034 629.404 245.099 L629.404 241.163 Q631.742 240.261 633.941 239.821 Q636.14 239.358 638.224 239.358 Q643.849 239.358 646.626 242.274 Q649.404 245.191 649.404 251.117 Z" fill="#000000" fill-rule="nonzero" fill-opacity="1"></path><path clip-path="url(#clip210)" d="M676.835 240.978 L676.835 244.96 Q675.029 243.964 673.2 243.478 Q671.395 242.969 669.543 242.969 Q665.4 242.969 663.108 245.608 Q660.816 248.224 660.816 252.969 Q660.816 257.714 663.108 260.353 Q665.4 262.969 669.543 262.969 Q671.395 262.969 673.2 262.483 Q675.029 261.973 676.835 260.978 L676.835 264.913 Q675.052 265.747 673.131 266.163 Q671.233 266.58 669.08 266.58 Q663.224 266.58 659.775 262.899 Q656.325 259.219 656.325 252.969 Q656.325 246.626 659.798 242.992 Q663.293 239.358 669.358 239.358 Q671.325 239.358 673.2 239.775 Q675.075 240.168 676.835 240.978 M670.816 265.909 Q672.089 267.344 672.714 268.547 Q673.339 269.774 673.339 270.885 Q673.339 272.946 671.95 273.987 Q670.562 275.052 667.83 275.052 Q666.765 275.052 665.747 274.913 Q664.751 274.774 663.756 274.497 L663.756 271.464 Q664.543 271.858 665.4 272.02 Q666.256 272.205 667.344 272.205 Q668.71 272.205 669.404 271.649 Q670.099 271.094 670.099 270.029 Q670.099 269.335 669.589 268.316 Q669.103 267.321 668.062 265.909 L670.816 265.909 Z" fill="#000000" fill-rule="nonzero" fill-opacity="1"></path><path clip-path="url(#clip210)" d="M696.024 252.876 Q690.862 252.876 688.872 254.057 Q686.881 255.237 686.881 258.085 Q686.881 260.353 688.362 261.696 Q689.867 263.015 692.436 263.015 Q695.978 263.015 698.108 260.515 Q700.26 257.992 700.26 253.825 L700.26 252.876 L696.024 252.876 M704.52 251.117 L704.52 265.909 L700.26 265.909 L700.26 261.973 Q698.802 264.335 696.626 265.469 Q694.45 266.58 691.302 266.58 Q687.321 266.58 684.96 264.358 Q682.622 262.112 682.622 258.362 Q682.622 253.987 685.538 251.765 Q688.478 249.543 694.288 249.543 L700.26 249.543 L700.26 249.126 Q700.26 246.187 698.316 244.589 Q696.395 242.969 692.899 242.969 Q690.677 242.969 688.571 243.501 Q686.464 244.034 684.52 245.099 L684.52 241.163 Q686.858 240.261 689.057 239.821 Q691.256 239.358 693.339 239.358 Q698.964 239.358 701.742 242.274 Q704.52 245.191 704.52 251.117 M693.432 234.196 L692.112 232.923 Q691.603 232.46 691.21 232.251 Q690.839 232.02 690.538 232.02 Q689.659 232.02 689.242 232.876 Q688.825 233.71 688.779 235.608 L685.886 235.608 Q685.932 232.483 687.112 230.793 Q688.293 229.08 690.399 229.08 Q691.279 229.08 692.02 229.404 Q692.76 229.728 693.617 230.492 L694.936 231.765 Q695.446 232.228 695.816 232.46 Q696.21 232.668 696.51 232.668 Q697.39 232.668 697.807 231.835 Q698.223 230.978 698.27 229.08 L701.163 229.08 Q701.117 232.205 699.936 233.918 Q698.756 235.608 696.649 235.608 Q695.77 235.608 695.029 235.284 Q694.288 234.96 693.432 234.196 Z" fill="#000000" fill-rule="nonzero" fill-opacity="1"></path><path clip-path="url(#clip210)" d="M723.339 242.969 Q719.913 242.969 717.922 245.654 Q715.932 248.316 715.932 252.969 Q715.932 257.622 717.899 260.307 Q719.89 262.969 723.339 262.969 Q726.742 262.969 728.733 260.284 Q730.723 257.598 730.723 252.969 Q730.723 248.362 728.733 245.677 Q726.742 242.969 723.339 242.969 M723.339 239.358 Q728.895 239.358 732.066 242.969 Q735.237 246.58 735.237 252.969 Q735.237 259.335 732.066 262.969 Q728.895 266.58 723.339 266.58 Q717.76 266.58 714.589 262.969 Q711.441 259.335 711.441 252.969 Q711.441 246.58 714.589 242.969 Q717.76 239.358 723.339 239.358 Z" fill="#000000" fill-rule="nonzero" fill-opacity="1"></path><path clip-path="url(#clip210)" d="M774.427 243.918 L774.427 229.89 L778.686 229.89 L778.686 265.909 L774.427 265.909 L774.427 262.02 Q773.084 264.335 771.024 265.469 Q768.987 266.58 766.117 266.58 Q761.418 266.58 758.455 262.83 Q755.515 259.08 755.515 252.969 Q755.515 246.858 758.455 243.108 Q761.418 239.358 766.117 239.358 Q768.987 239.358 771.024 240.492 Q773.084 241.603 774.427 243.918 M759.913 252.969 Q759.913 257.668 761.834 260.353 Q763.779 263.015 767.158 263.015 Q770.538 263.015 772.482 260.353 Q774.427 257.668 774.427 252.969 Q774.427 248.27 772.482 245.608 Q770.538 242.923 767.158 242.923 Q763.779 242.923 761.834 245.608 Q759.913 248.27 759.913 252.969 Z" fill="#000000" fill-rule="nonzero" fill-opacity="1"></path><path clip-path="url(#clip210)" d="M809.635 251.881 L809.635 253.964 L790.052 253.964 Q790.329 258.362 792.691 260.677 Q795.075 262.969 799.311 262.969 Q801.765 262.969 804.056 262.367 Q806.371 261.765 808.639 260.561 L808.639 264.589 Q806.348 265.561 803.94 266.071 Q801.533 266.58 799.056 266.58 Q792.853 266.58 789.218 262.969 Q785.607 259.358 785.607 253.2 Q785.607 246.835 789.033 243.108 Q792.482 239.358 798.315 239.358 Q803.547 239.358 806.579 242.737 Q809.635 246.094 809.635 251.881 M805.376 250.631 Q805.329 247.136 803.408 245.052 Q801.51 242.969 798.362 242.969 Q794.797 242.969 792.644 244.983 Q790.515 246.997 790.191 250.654 L805.376 250.631 Z" fill="#000000" fill-rule="nonzero" fill-opacity="1"></path><path clip-path="url(#clip210)" d="M836.556 249.404 L836.556 262.066 L844.056 262.066 Q847.829 262.066 849.635 260.515 Q851.463 258.941 851.463 255.723 Q851.463 252.483 849.635 250.955 Q847.829 249.404 844.056 249.404 L836.556 249.404 M836.556 235.191 L836.556 245.608 L843.477 245.608 Q846.903 245.608 848.57 244.335 Q850.26 243.038 850.26 240.399 Q850.26 237.784 848.57 236.487 Q846.903 235.191 843.477 235.191 L836.556 235.191 M831.88 231.349 L843.824 231.349 Q849.172 231.349 852.065 233.571 Q854.959 235.793 854.959 239.89 Q854.959 243.062 853.477 244.937 Q851.996 246.811 849.125 247.274 Q852.574 248.015 854.473 250.376 Q856.394 252.714 856.394 256.233 Q856.394 260.862 853.246 263.385 Q850.098 265.909 844.287 265.909 L831.88 265.909 L831.88 231.349 Z" fill="#000000" fill-rule="nonzero" fill-opacity="1"></path><path clip-path="url(#clip210)" d="M876 252.876 Q870.838 252.876 868.848 254.057 Q866.857 255.237 866.857 258.085 Q866.857 260.353 868.338 261.696 Q869.843 263.015 872.412 263.015 Q875.954 263.015 878.084 260.515 Q880.236 257.992 880.236 253.825 L880.236 252.876 L876 252.876 M884.496 251.117 L884.496 265.909 L880.236 265.909 L880.236 261.973 Q878.778 264.335 876.602 265.469 Q874.426 266.58 871.278 266.58 Q867.297 266.58 864.935 264.358 Q862.598 262.112 862.598 258.362 Q862.598 253.987 865.514 251.765 Q868.454 249.543 874.264 249.543 L880.236 249.543 L880.236 249.126 Q880.236 246.187 878.292 244.589 Q876.371 242.969 872.875 242.969 Q870.653 242.969 868.547 243.501 Q866.44 244.034 864.496 245.099 L864.496 241.163 Q866.834 240.261 869.033 239.821 Q871.232 239.358 873.315 239.358 Q878.94 239.358 881.718 242.274 Q884.496 245.191 884.496 251.117 Z" fill="#000000" fill-rule="nonzero" fill-opacity="1"></path><path clip-path="url(#clip210)" d="M911.926 240.978 L911.926 244.96 Q910.12 243.964 908.292 243.478 Q906.486 242.969 904.634 242.969 Q900.491 242.969 898.199 245.608 Q895.908 248.224 895.908 252.969 Q895.908 257.714 898.199 260.353 Q900.491 262.969 904.634 262.969 Q906.486 262.969 908.292 262.483 Q910.12 261.973 911.926 260.978 L911.926 264.913 Q910.144 265.747 908.222 266.163 Q906.324 266.58 904.171 266.58 Q898.315 266.58 894.866 262.899 Q891.417 259.219 891.417 252.969 Q891.417 246.626 894.889 242.992 Q898.384 239.358 904.449 239.358 Q906.417 239.358 908.292 239.775 Q910.167 240.168 911.926 240.978 Z" fill="#000000" fill-rule="nonzero" fill-opacity="1"></path><path clip-path="url(#clip210)" d="M923.546 232.622 L923.546 239.983 L932.319 239.983 L932.319 243.293 L923.546 243.293 L923.546 257.367 Q923.546 260.538 924.403 261.441 Q925.282 262.344 927.944 262.344 L932.319 262.344 L932.319 265.909 L927.944 265.909 Q923.014 265.909 921.139 264.08 Q919.264 262.228 919.264 257.367 L919.264 243.293 L916.139 243.293 L916.139 239.983 L919.264 239.983 L919.264 232.622 L923.546 232.622 Z" fill="#000000" fill-rule="nonzero" fill-opacity="1"></path><path clip-path="url(#clip210)" d="M960.097 251.881 L960.097 253.964 L940.514 253.964 Q940.792 258.362 943.153 260.677 Q945.537 262.969 949.773 262.969 Q952.227 262.969 954.518 262.367 Q956.833 261.765 959.102 260.561 L959.102 264.589 Q956.81 265.561 954.403 266.071 Q951.995 266.58 949.518 266.58 Q943.315 266.58 939.68 262.969 Q936.069 259.358 936.069 253.2 Q936.069 246.835 939.495 243.108 Q942.944 239.358 948.778 239.358 Q954.009 239.358 957.041 242.737 Q960.097 246.094 960.097 251.881 M955.838 250.631 Q955.791 247.136 953.87 245.052 Q951.972 242.969 948.824 242.969 Q945.259 242.969 943.106 244.983 Q940.977 246.997 940.653 250.654 L955.838 250.631 M951.741 227.992 L956.347 227.992 L948.801 236.696 L945.259 236.696 L951.741 227.992 Z" fill="#000000" fill-rule="nonzero" fill-opacity="1"></path><path clip-path="url(#clip210)" d="M982.111 243.964 Q981.393 243.548 980.537 243.362 Q979.703 243.154 978.685 243.154 Q975.074 243.154 973.129 245.515 Q971.208 247.853 971.208 252.251 L971.208 265.909 L966.926 265.909 L966.926 239.983 L971.208 239.983 L971.208 244.011 Q972.551 241.649 974.703 240.515 Q976.856 239.358 979.935 239.358 Q980.375 239.358 980.907 239.427 Q981.439 239.474 982.088 239.589 L982.111 243.964 Z" fill="#000000" fill-rule="nonzero" fill-opacity="1"></path><path clip-path="url(#clip210)" d="M986.578 239.983 L990.838 239.983 L990.838 265.909 L986.578 265.909 L986.578 239.983 M986.578 229.89 L990.838 229.89 L990.838 235.284 L986.578 235.284 L986.578 229.89 Z" fill="#000000" fill-rule="nonzero" fill-opacity="1"></path><path clip-path="url(#clip210)" d="M1011.53 252.876 Q1006.37 252.876 1004.38 254.057 Q1002.39 255.237 1002.39 258.085 Q1002.39 260.353 1003.87 261.696 Q1005.37 263.015 1007.94 263.015 Q1011.49 263.015 1013.62 260.515 Q1015.77 257.992 1015.77 253.825 L1015.77 252.876 L1011.53 252.876 M1020.03 251.117 L1020.03 265.909 L1015.77 265.909 L1015.77 261.973 Q1014.31 264.335 1012.13 265.469 Q1009.96 266.58 1006.81 266.58 Q1002.83 266.58 1000.47 264.358 Q998.129 262.112 998.129 258.362 Q998.129 253.987 1001.05 251.765 Q1003.99 249.543 1009.8 249.543 L1015.77 249.543 L1015.77 249.126 Q1015.77 246.187 1013.82 244.589 Q1011.9 242.969 1008.41 242.969 Q1006.18 242.969 1004.08 243.501 Q1001.97 244.034 1000.03 245.099 L1000.03 241.163 Q1002.37 240.261 1004.56 239.821 Q1006.76 239.358 1008.85 239.358 Q1014.47 239.358 1017.25 242.274 Q1020.03 245.191 1020.03 251.117 Z" fill="#000000" fill-rule="nonzero" fill-opacity="1"></path><path clip-path="url(#clip210)" d="M1045.33 240.747 L1045.33 244.774 Q1043.52 243.849 1041.58 243.386 Q1039.63 242.923 1037.55 242.923 Q1034.38 242.923 1032.78 243.895 Q1031.21 244.867 1031.21 246.811 Q1031.21 248.293 1032.34 249.149 Q1033.48 249.983 1036.9 250.747 L1038.36 251.071 Q1042.9 252.043 1044.8 253.825 Q1046.72 255.585 1046.72 258.756 Q1046.72 262.367 1043.85 264.473 Q1041 266.58 1036 266.58 Q1033.92 266.58 1031.65 266.163 Q1029.4 265.77 1026.9 264.96 L1026.9 260.561 Q1029.26 261.788 1031.55 262.413 Q1033.85 263.015 1036.09 263.015 Q1039.1 263.015 1040.72 261.997 Q1042.34 260.955 1042.34 259.08 Q1042.34 257.344 1041.16 256.418 Q1040 255.492 1036.05 254.636 L1034.56 254.288 Q1030.61 253.455 1028.85 251.742 Q1027.09 250.006 1027.09 246.997 Q1027.09 243.339 1029.68 241.349 Q1032.27 239.358 1037.04 239.358 Q1039.4 239.358 1041.49 239.705 Q1043.57 240.052 1045.33 240.747 Z" fill="#000000" fill-rule="nonzero" fill-opacity="1"></path></svg>