<svg xmlns="http://www.w3.org/2000/svg" xmlns:xlink="http://www.w3.org/1999/xlink" width="600" height="400" viewBox="0 0 2400 1600">
<defs>
  <clipPath id="clip330">
    <rect x="0" y="0" width="2400" height="1600"></rect>
  </clipPath>
</defs>
<path clip-path="url(#clip330)" d="M0 1600 L2400 1600 L2400 0 L0 0  Z" fill="#ffffff" fill-rule="evenodd" fill-opacity="1"></path>
<defs>
  <clipPath id="clip331">
    <rect x="480" y="0" width="1681" height="1600"></rect>
  </clipPath>
</defs>
<path clip-path="url(#clip330)" d="M175.445 1423.18 L2352.76 1423.18 L2352.76 47.2441 L175.445 47.2441  Z" fill="#ffffff" fill-rule="evenodd" fill-opacity="1"></path>
<defs>
  <clipPath id="clip332">
    <rect x="175" y="47" width="2178" height="1377"></rect>
  </clipPath>
</defs>
<polyline clip-path="url(#clip332)" style="stroke:#000000; stroke-linecap:round; stroke-linejoin:round; stroke-width:2; stroke-opacity:0.1; fill:none" points="237.067,1423.18 237.067,47.2441 "></polyline>
<polyline clip-path="url(#clip332)" style="stroke:#000000; stroke-linecap:round; stroke-linejoin:round; stroke-width:2; stroke-opacity:0.1; fill:none" points="750.584,1423.18 750.584,47.2441 "></polyline>
<polyline clip-path="url(#clip332)" style="stroke:#000000; stroke-linecap:round; stroke-linejoin:round; stroke-width:2; stroke-opacity:0.1; fill:none" points="1264.1,1423.18 1264.1,47.2441 "></polyline>
<polyline clip-path="url(#clip332)" style="stroke:#000000; stroke-linecap:round; stroke-linejoin:round; stroke-width:2; stroke-opacity:0.1; fill:none" points="1777.62,1423.18 1777.62,47.2441 "></polyline>
<polyline clip-path="url(#clip332)" style="stroke:#000000; stroke-linecap:round; stroke-linejoin:round; stroke-width:2; stroke-opacity:0.1; fill:none" points="2291.13,1423.18 2291.13,47.2441 "></polyline>
<polyline clip-path="url(#clip330)" style="stroke:#000000; stroke-linecap:round; stroke-linejoin:round; stroke-width:4; stroke-opacity:1; fill:none" points="175.445,1423.18 2352.76,1423.18 "></polyline>
<polyline clip-path="url(#clip330)" style="stroke:#000000; stroke-linecap:round; stroke-linejoin:round; stroke-width:4; stroke-opacity:1; fill:none" points="237.067,1423.18 237.067,1404.28 "></polyline>
<polyline clip-path="url(#clip330)" style="stroke:#000000; stroke-linecap:round; stroke-linejoin:round; stroke-width:4; stroke-opacity:1; fill:none" points="750.584,1423.18 750.584,1404.28 "></polyline>
<polyline clip-path="url(#clip330)" style="stroke:#000000; stroke-linecap:round; stroke-linejoin:round; stroke-width:4; stroke-opacity:1; fill:none" points="1264.1,1423.18 1264.1,1404.28 "></polyline>
<polyline clip-path="url(#clip330)" style="stroke:#000000; stroke-linecap:round; stroke-linejoin:round; stroke-width:4; stroke-opacity:1; fill:none" points="1777.62,1423.18 1777.62,1404.28 "></polyline>
<polyline clip-path="url(#clip330)" style="stroke:#000000; stroke-linecap:round; stroke-linejoin:round; stroke-width:4; stroke-opacity:1; fill:none" points="2291.13,1423.18 2291.13,1404.28 "></polyline>
<path clip-path="url(#clip330)" d="M214.452 1454.1 Q210.84 1454.1 209.012 1457.66 Q207.206 1461.2 207.206 1468.33 Q207.206 1475.44 209.012 1479.01 Q210.84 1482.55 214.452 1482.55 Q218.086 1482.55 219.891 1479.01 Q221.72 1475.44 221.72 1468.33 Q221.72 1461.2 219.891 1457.66 Q218.086 1454.1 214.452 1454.1 M214.452 1450.39 Q220.262 1450.39 223.317 1455 Q226.396 1459.58 226.396 1468.33 Q226.396 1477.06 223.317 1481.67 Q220.262 1486.25 214.452 1486.25 Q208.641 1486.25 205.563 1481.67 Q202.507 1477.06 202.507 1468.33 Q202.507 1459.58 205.563 1455 Q208.641 1450.39 214.452 1450.39 Z" fill="#000000" fill-rule="nonzero" fill-opacity="1"></path><path clip-path="url(#clip330)" d="M234.614 1479.7 L239.498 1479.7 L239.498 1485.58 L234.614 1485.58 L234.614 1479.7 Z" fill="#000000" fill-rule="nonzero" fill-opacity="1"></path><path clip-path="url(#clip330)" d="M259.683 1454.1 Q256.072 1454.1 254.243 1457.66 Q252.437 1461.2 252.437 1468.33 Q252.437 1475.44 254.243 1479.01 Q256.072 1482.55 259.683 1482.55 Q263.317 1482.55 265.123 1479.01 Q266.951 1475.44 266.951 1468.33 Q266.951 1461.2 265.123 1457.66 Q263.317 1454.1 259.683 1454.1 M259.683 1450.39 Q265.493 1450.39 268.549 1455 Q271.627 1459.58 271.627 1468.33 Q271.627 1477.06 268.549 1481.67 Q265.493 1486.25 259.683 1486.25 Q253.873 1486.25 250.794 1481.67 Q247.738 1477.06 247.738 1468.33 Q247.738 1459.58 250.794 1455 Q253.873 1450.39 259.683 1450.39 Z" fill="#000000" fill-rule="nonzero" fill-opacity="1"></path><path clip-path="url(#clip330)" d="M722.32 1481.64 L738.64 1481.64 L738.64 1485.58 L716.695 1485.58 L716.695 1481.64 Q719.357 1478.89 723.941 1474.26 Q728.547 1469.61 729.728 1468.27 Q731.973 1465.74 732.852 1464.01 Q733.755 1462.25 733.755 1460.56 Q733.755 1457.8 731.811 1456.07 Q729.89 1454.33 726.788 1454.33 Q724.589 1454.33 722.135 1455.09 Q719.704 1455.86 716.927 1457.41 L716.927 1452.69 Q719.751 1451.55 722.204 1450.97 Q724.658 1450.39 726.695 1450.39 Q732.065 1450.39 735.26 1453.08 Q738.454 1455.77 738.454 1460.26 Q738.454 1462.39 737.644 1464.31 Q736.857 1466.2 734.751 1468.8 Q734.172 1469.47 731.07 1472.69 Q727.968 1475.88 722.32 1481.64 Z" fill="#000000" fill-rule="nonzero" fill-opacity="1"></path><path clip-path="url(#clip330)" d="M748.454 1479.7 L753.338 1479.7 L753.338 1485.58 L748.454 1485.58 L748.454 1479.7 Z" fill="#000000" fill-rule="nonzero" fill-opacity="1"></path><path clip-path="url(#clip330)" d="M763.57 1451.02 L781.926 1451.02 L781.926 1454.96 L767.852 1454.96 L767.852 1463.43 Q768.871 1463.08 769.889 1462.92 Q770.908 1462.73 771.926 1462.73 Q777.713 1462.73 781.093 1465.9 Q784.473 1469.08 784.473 1474.49 Q784.473 1480.07 781 1483.17 Q777.528 1486.25 771.209 1486.25 Q769.033 1486.25 766.764 1485.88 Q764.519 1485.51 762.112 1484.77 L762.112 1480.07 Q764.195 1481.2 766.417 1481.76 Q768.639 1482.32 771.116 1482.32 Q775.121 1482.32 777.459 1480.21 Q779.797 1478.1 779.797 1474.49 Q779.797 1470.88 777.459 1468.77 Q775.121 1466.67 771.116 1466.67 Q769.241 1466.67 767.366 1467.08 Q765.514 1467.5 763.57 1468.38 L763.57 1451.02 Z" fill="#000000" fill-rule="nonzero" fill-opacity="1"></path><path clip-path="url(#clip330)" d="M1231.27 1451.02 L1249.62 1451.02 L1249.62 1454.96 L1235.55 1454.96 L1235.55 1463.43 Q1236.57 1463.08 1237.58 1462.92 Q1238.6 1462.73 1239.62 1462.73 Q1245.41 1462.73 1248.79 1465.9 Q1252.17 1469.08 1252.17 1474.49 Q1252.17 1480.07 1248.7 1483.17 Q1245.22 1486.25 1238.9 1486.25 Q1236.73 1486.25 1234.46 1485.88 Q1232.21 1485.51 1229.81 1484.77 L1229.81 1480.07 Q1231.89 1481.2 1234.11 1481.76 Q1236.33 1482.32 1238.81 1482.32 Q1242.82 1482.32 1245.15 1480.21 Q1247.49 1478.1 1247.49 1474.49 Q1247.49 1470.88 1245.15 1468.77 Q1242.82 1466.67 1238.81 1466.67 Q1236.94 1466.67 1235.06 1467.08 Q1233.21 1467.5 1231.27 1468.38 L1231.27 1451.02 Z" fill="#000000" fill-rule="nonzero" fill-opacity="1"></path><path clip-path="url(#clip330)" d="M1261.38 1479.7 L1266.26 1479.7 L1266.26 1485.58 L1261.38 1485.58 L1261.38 1479.7 Z" fill="#000000" fill-rule="nonzero" fill-opacity="1"></path><path clip-path="url(#clip330)" d="M1286.45 1454.1 Q1282.84 1454.1 1281.01 1457.66 Q1279.2 1461.2 1279.2 1468.33 Q1279.2 1475.44 1281.01 1479.01 Q1282.84 1482.55 1286.45 1482.55 Q1290.08 1482.55 1291.89 1479.01 Q1293.72 1475.44 1293.72 1468.33 Q1293.72 1461.2 1291.89 1457.66 Q1290.08 1454.1 1286.45 1454.1 M1286.45 1450.39 Q1292.26 1450.39 1295.32 1455 Q1298.39 1459.58 1298.39 1468.33 Q1298.39 1477.06 1295.32 1481.67 Q1292.26 1486.25 1286.45 1486.25 Q1280.64 1486.25 1277.56 1481.67 Q1274.51 1477.06 1274.51 1468.33 Q1274.51 1459.58 1277.56 1455 Q1280.64 1450.39 1286.45 1450.39 Z" fill="#000000" fill-rule="nonzero" fill-opacity="1"></path><path clip-path="url(#clip330)" d="M1743.94 1451.02 L1766.16 1451.02 L1766.16 1453.01 L1753.61 1485.58 L1748.73 1485.58 L1760.53 1454.96 L1743.94 1454.96 L1743.94 1451.02 Z" fill="#000000" fill-rule="nonzero" fill-opacity="1"></path><path clip-path="url(#clip330)" d="M1775.28 1479.7 L1780.16 1479.7 L1780.16 1485.58 L1775.28 1485.58 L1775.28 1479.7 Z" fill="#000000" fill-rule="nonzero" fill-opacity="1"></path><path clip-path="url(#clip330)" d="M1790.39 1451.02 L1808.75 1451.02 L1808.75 1454.96 L1794.68 1454.96 L1794.68 1463.43 Q1795.7 1463.08 1796.71 1462.92 Q1797.73 1462.73 1798.75 1462.73 Q1804.54 1462.73 1807.92 1465.9 Q1811.3 1469.08 1811.3 1474.49 Q1811.3 1480.07 1807.83 1483.17 Q1804.35 1486.25 1798.03 1486.25 Q1795.86 1486.25 1793.59 1485.88 Q1791.34 1485.51 1788.94 1484.77 L1788.94 1480.07 Q1791.02 1481.2 1793.24 1481.76 Q1795.46 1482.32 1797.94 1482.32 Q1801.95 1482.32 1804.28 1480.21 Q1806.62 1478.1 1806.62 1474.49 Q1806.62 1470.88 1804.28 1468.77 Q1801.95 1466.67 1797.94 1466.67 Q1796.07 1466.67 1794.19 1467.08 Q1792.34 1467.5 1790.39 1468.38 L1790.39 1451.02 Z" fill="#000000" fill-rule="nonzero" fill-opacity="1"></path><path clip-path="url(#clip330)" d="M2243.21 1481.64 L2250.84 1481.64 L2250.84 1455.28 L2242.53 1456.95 L2242.53 1452.69 L2250.8 1451.02 L2255.47 1451.02 L2255.47 1481.64 L2263.11 1481.64 L2263.11 1485.58 L2243.21 1485.58 L2243.21 1481.64 Z" fill="#000000" fill-rule="nonzero" fill-opacity="1"></path><path clip-path="url(#clip330)" d="M2282.56 1454.1 Q2278.95 1454.1 2277.12 1457.66 Q2275.31 1461.2 2275.31 1468.33 Q2275.31 1475.44 2277.12 1479.01 Q2278.95 1482.55 2282.56 1482.55 Q2286.19 1482.55 2288 1479.01 Q2289.83 1475.44 2289.83 1468.33 Q2289.83 1461.2 2288 1457.66 Q2286.19 1454.1 2282.56 1454.1 M2282.56 1450.39 Q2288.37 1450.39 2291.42 1455 Q2294.5 1459.58 2294.5 1468.33 Q2294.5 1477.06 2291.42 1481.67 Q2288.37 1486.25 2282.56 1486.25 Q2276.75 1486.25 2273.67 1481.67 Q2270.61 1477.06 2270.61 1468.33 Q2270.61 1459.58 2273.67 1455 Q2276.75 1450.39 2282.56 1450.39 Z" fill="#000000" fill-rule="nonzero" fill-opacity="1"></path><path clip-path="url(#clip330)" d="M2302.72 1479.7 L2307.6 1479.7 L2307.6 1485.58 L2302.72 1485.58 L2302.72 1479.7 Z" fill="#000000" fill-rule="nonzero" fill-opacity="1"></path><path clip-path="url(#clip330)" d="M2327.79 1454.1 Q2324.18 1454.1 2322.35 1457.66 Q2320.54 1461.2 2320.54 1468.33 Q2320.54 1475.44 2322.35 1479.01 Q2324.18 1482.55 2327.79 1482.55 Q2331.42 1482.55 2333.23 1479.01 Q2335.06 1475.44 2335.06 1468.33 Q2335.06 1461.2 2333.23 1457.66 Q2331.42 1454.1 2327.79 1454.1 M2327.79 1450.39 Q2333.6 1450.39 2336.65 1455 Q2339.73 1459.58 2339.73 1468.33 Q2339.73 1477.06 2336.65 1481.67 Q2333.6 1486.25 2327.79 1486.25 Q2321.98 1486.25 2318.9 1481.67 Q2315.84 1477.06 2315.84 1468.33 Q2315.84 1459.58 2318.9 1455 Q2321.98 1450.39 2327.79 1450.39 Z" fill="#000000" fill-rule="nonzero" fill-opacity="1"></path><path clip-path="url(#clip330)" d="M1158.99 1520.52 L1199.19 1520.52 L1199.19 1525.93 L1182.32 1525.93 L1182.32 1568.04 L1175.86 1568.04 L1175.86 1525.93 L1158.99 1525.93 L1158.99 1520.52 Z" fill="#000000" fill-rule="nonzero" fill-opacity="1"></path><path clip-path="url(#clip330)" d="M1224.55 1548.76 L1224.55 1551.62 L1197.63 1551.62 Q1198.01 1557.67 1201.26 1560.85 Q1204.53 1564 1210.36 1564 Q1213.73 1564 1216.88 1563.17 Q1220.07 1562.35 1223.18 1560.69 L1223.18 1566.23 Q1220.03 1567.57 1216.72 1568.27 Q1213.41 1568.97 1210.01 1568.97 Q1201.48 1568.97 1196.48 1564 Q1191.52 1559.04 1191.52 1550.57 Q1191.52 1541.82 1196.23 1536.69 Q1200.97 1531.54 1208.99 1531.54 Q1216.18 1531.54 1220.35 1536.18 Q1224.55 1540.8 1224.55 1548.76 M1218.7 1547.04 Q1218.63 1542.23 1215.99 1539.37 Q1213.38 1536.5 1209.05 1536.5 Q1204.15 1536.5 1201.19 1539.27 Q1198.26 1542.04 1197.82 1547.07 L1218.7 1547.04 Z" fill="#000000" fill-rule="nonzero" fill-opacity="1"></path><path clip-path="url(#clip330)" d="M1261.92 1539.24 Q1264.12 1535.29 1267.17 1533.41 Q1270.23 1531.54 1274.37 1531.54 Q1279.94 1531.54 1282.96 1535.45 Q1285.98 1539.33 1285.98 1546.53 L1285.98 1568.04 L1280.09 1568.04 L1280.09 1546.72 Q1280.09 1541.59 1278.28 1539.11 Q1276.47 1536.63 1272.74 1536.63 Q1268.19 1536.63 1265.55 1539.65 Q1262.91 1542.68 1262.91 1547.9 L1262.91 1568.04 L1257.02 1568.04 L1257.02 1546.72 Q1257.02 1541.56 1255.2 1539.11 Q1253.39 1536.63 1249.6 1536.63 Q1245.11 1536.63 1242.47 1539.68 Q1239.83 1542.71 1239.83 1547.9 L1239.83 1568.04 L1233.94 1568.04 L1233.94 1532.4 L1239.83 1532.4 L1239.83 1537.93 Q1241.84 1534.66 1244.64 1533.1 Q1247.44 1531.54 1251.29 1531.54 Q1255.17 1531.54 1257.88 1533.51 Q1260.62 1535.48 1261.92 1539.24 Z" fill="#000000" fill-rule="nonzero" fill-opacity="1"></path><path clip-path="url(#clip330)" d="M1303.33 1562.7 L1303.33 1581.6 L1297.44 1581.6 L1297.44 1532.4 L1303.33 1532.4 L1303.33 1537.81 Q1305.18 1534.62 1307.98 1533.1 Q1310.81 1531.54 1314.72 1531.54 Q1321.22 1531.54 1325.26 1536.69 Q1329.33 1541.85 1329.33 1550.25 Q1329.33 1558.65 1325.26 1563.81 Q1321.22 1568.97 1314.72 1568.97 Q1310.81 1568.97 1307.98 1567.44 Q1305.18 1565.88 1303.33 1562.7 M1323.25 1550.25 Q1323.25 1543.79 1320.58 1540.13 Q1317.94 1536.44 1313.29 1536.44 Q1308.64 1536.44 1305.97 1540.13 Q1303.33 1543.79 1303.33 1550.25 Q1303.33 1556.71 1305.97 1560.4 Q1308.64 1564.07 1313.29 1564.07 Q1317.94 1564.07 1320.58 1560.4 Q1323.25 1556.71 1323.25 1550.25 Z" fill="#000000" fill-rule="nonzero" fill-opacity="1"></path><path clip-path="url(#clip330)" d="M1352.85 1536.5 Q1348.14 1536.5 1345.41 1540.19 Q1342.67 1543.85 1342.67 1550.25 Q1342.67 1556.65 1345.37 1560.34 Q1348.11 1564 1352.85 1564 Q1357.53 1564 1360.27 1560.31 Q1363.01 1556.62 1363.01 1550.25 Q1363.01 1543.92 1360.27 1540.23 Q1357.53 1536.5 1352.85 1536.5 M1352.85 1531.54 Q1360.49 1531.54 1364.85 1536.5 Q1369.21 1541.47 1369.21 1550.25 Q1369.21 1559 1364.85 1564 Q1360.49 1568.97 1352.85 1568.97 Q1345.18 1568.97 1340.82 1564 Q1336.49 1559 1336.49 1550.25 Q1336.49 1541.47 1340.82 1536.5 Q1345.18 1531.54 1352.85 1531.54 Z" fill="#000000" fill-rule="nonzero" fill-opacity="1"></path><polyline clip-path="url(#clip332)" style="stroke:#000000; stroke-linecap:round; stroke-linejoin:round; stroke-width:2; stroke-opacity:0.1; fill:none" points="175.445,1144.97 2352.76,1144.97 "></polyline>
<polyline clip-path="url(#clip332)" style="stroke:#000000; stroke-linecap:round; stroke-linejoin:round; stroke-width:2; stroke-opacity:0.1; fill:none" points="175.445,825.944 2352.76,825.944 "></polyline>
<polyline clip-path="url(#clip332)" style="stroke:#000000; stroke-linecap:round; stroke-linejoin:round; stroke-width:2; stroke-opacity:0.1; fill:none" points="175.445,506.918 2352.76,506.918 "></polyline>
<polyline clip-path="url(#clip332)" style="stroke:#000000; stroke-linecap:round; stroke-linejoin:round; stroke-width:2; stroke-opacity:0.1; fill:none" points="175.445,187.893 2352.76,187.893 "></polyline>
<polyline clip-path="url(#clip330)" style="stroke:#000000; stroke-linecap:round; stroke-linejoin:round; stroke-width:4; stroke-opacity:1; fill:none" points="175.445,1423.18 175.445,47.2441 "></polyline>
<polyline clip-path="url(#clip330)" style="stroke:#000000; stroke-linecap:round; stroke-linejoin:round; stroke-width:4; stroke-opacity:1; fill:none" points="175.445,1144.97 194.343,1144.97 "></polyline>
<polyline clip-path="url(#clip330)" style="stroke:#000000; stroke-linecap:round; stroke-linejoin:round; stroke-width:4; stroke-opacity:1; fill:none" points="175.445,825.944 194.343,825.944 "></polyline>
<polyline clip-path="url(#clip330)" style="stroke:#000000; stroke-linecap:round; stroke-linejoin:round; stroke-width:4; stroke-opacity:1; fill:none" points="175.445,506.918 194.343,506.918 "></polyline>
<polyline clip-path="url(#clip330)" style="stroke:#000000; stroke-linecap:round; stroke-linejoin:round; stroke-width:4; stroke-opacity:1; fill:none" points="175.445,187.893 194.343,187.893 "></polyline>
<path clip-path="url(#clip330)" d="M123.126 1158.31 L139.445 1158.31 L139.445 1162.25 L117.501 1162.25 L117.501 1158.31 Q120.163 1155.56 124.746 1150.93 Q129.353 1146.28 130.533 1144.93 Q132.779 1142.41 133.658 1140.68 Q134.561 1138.92 134.561 1137.23 Q134.561 1134.47 132.617 1132.74 Q130.695 1131 127.593 1131 Q125.394 1131 122.941 1131.76 Q120.51 1132.53 117.732 1134.08 L117.732 1129.36 Q120.556 1128.22 123.01 1127.64 Q125.464 1127.06 127.501 1127.06 Q132.871 1127.06 136.066 1129.75 Q139.26 1132.43 139.26 1136.93 Q139.26 1139.05 138.45 1140.98 Q137.663 1142.87 135.556 1145.47 Q134.978 1146.14 131.876 1149.36 Q128.774 1152.55 123.126 1158.31 Z" fill="#000000" fill-rule="nonzero" fill-opacity="1"></path><path clip-path="url(#clip330)" d="M129.862 812.738 L118.056 831.187 L129.862 831.187 L129.862 812.738 M128.635 808.664 L134.515 808.664 L134.515 831.187 L139.445 831.187 L139.445 835.076 L134.515 835.076 L134.515 843.224 L129.862 843.224 L129.862 835.076 L114.26 835.076 L114.26 830.562 L128.635 808.664 Z" fill="#000000" fill-rule="nonzero" fill-opacity="1"></path><path clip-path="url(#clip330)" d="M127.917 505.055 Q124.769 505.055 122.918 507.208 Q121.089 509.36 121.089 513.11 Q121.089 516.837 122.918 519.013 Q124.769 521.166 127.917 521.166 Q131.066 521.166 132.894 519.013 Q134.746 516.837 134.746 513.11 Q134.746 509.36 132.894 507.208 Q131.066 505.055 127.917 505.055 M137.2 490.402 L137.2 494.661 Q135.441 493.828 133.635 493.388 Q131.853 492.948 130.093 492.948 Q125.464 492.948 123.01 496.073 Q120.58 499.198 120.232 505.518 Q121.598 503.504 123.658 502.439 Q125.718 501.351 128.195 501.351 Q133.404 501.351 136.413 504.522 Q139.445 507.671 139.445 513.11 Q139.445 518.434 136.297 521.652 Q133.149 524.87 127.917 524.87 Q121.922 524.87 118.751 520.286 Q115.58 515.68 115.58 506.953 Q115.58 498.759 119.468 493.897 Q123.357 489.013 129.908 489.013 Q131.667 489.013 133.45 489.36 Q135.255 489.708 137.2 490.402 Z" fill="#000000" fill-rule="nonzero" fill-opacity="1"></path><path clip-path="url(#clip330)" d="M127.593 188.761 Q124.26 188.761 122.339 190.543 Q120.441 192.326 120.441 195.451 Q120.441 198.576 122.339 200.358 Q124.26 202.14 127.593 202.14 Q130.927 202.14 132.848 200.358 Q134.769 198.552 134.769 195.451 Q134.769 192.326 132.848 190.543 Q130.95 188.761 127.593 188.761 M122.918 186.77 Q119.908 186.029 118.218 183.969 Q116.552 181.909 116.552 178.946 Q116.552 174.803 119.492 172.395 Q122.455 169.988 127.593 169.988 Q132.755 169.988 135.695 172.395 Q138.635 174.803 138.635 178.946 Q138.635 181.909 136.945 183.969 Q135.279 186.029 132.292 186.77 Q135.672 187.557 137.547 189.849 Q139.445 192.14 139.445 195.451 Q139.445 200.474 136.367 203.159 Q133.311 205.844 127.593 205.844 Q121.876 205.844 118.797 203.159 Q115.742 200.474 115.742 195.451 Q115.742 192.14 117.64 189.849 Q119.538 187.557 122.918 186.77 M121.205 179.386 Q121.205 182.071 122.871 183.576 Q124.561 185.08 127.593 185.08 Q130.603 185.08 132.292 183.576 Q134.005 182.071 134.005 179.386 Q134.005 176.701 132.292 175.196 Q130.603 173.691 127.593 173.691 Q124.561 173.691 122.871 175.196 Q121.205 176.701 121.205 179.386 Z" fill="#000000" fill-rule="nonzero" fill-opacity="1"></path><path clip-path="url(#clip330)" d="M64.0042 798.949 L16.4842 817.091 L16.4842 810.375 L56.4926 795.32 L16.4842 780.233 L16.4842 773.549 L64.0042 791.66 L64.0042 798.949 Z" fill="#000000" fill-rule="nonzero" fill-opacity="1"></path><path clip-path="url(#clip330)" d="M46.0847 755.725 Q46.0847 762.823 47.7079 765.56 Q49.3312 768.298 53.2461 768.298 Q56.3653 768.298 58.2114 766.261 Q60.0256 764.192 60.0256 760.659 Q60.0256 755.789 56.5881 752.861 Q53.1188 749.901 47.3897 749.901 L46.0847 749.901 L46.0847 755.725 M43.6657 744.044 L64.0042 744.044 L64.0042 749.901 L58.5933 749.901 Q61.8398 751.906 63.3994 754.898 Q64.9272 757.89 64.9272 762.218 Q64.9272 767.693 61.8716 770.939 Q58.7843 774.154 53.6281 774.154 Q47.6125 774.154 44.5569 770.144 Q41.5014 766.102 41.5014 758.113 L41.5014 749.901 L40.9285 749.901 Q36.8862 749.901 34.6901 752.574 Q32.4621 755.216 32.4621 760.022 Q32.4621 763.078 33.1941 765.974 Q33.9262 768.871 35.3903 771.544 L29.9795 771.544 Q28.7381 768.33 28.1334 765.306 Q27.4968 762.282 27.4968 759.418 Q27.4968 751.683 31.5072 747.864 Q35.5176 744.044 43.6657 744.044 Z" fill="#000000" fill-rule="nonzero" fill-opacity="1"></path><path clip-path="url(#clip330)" d="M14.479 731.981 L14.479 726.125 L64.0042 726.125 L64.0042 731.981 L14.479 731.981 Z" fill="#000000" fill-rule="nonzero" fill-opacity="1"></path><path clip-path="url(#clip330)" d="M32.4621 700.057 Q32.4621 704.768 36.1542 707.505 Q39.8145 710.242 46.212 710.242 Q52.6095 710.242 56.3017 707.537 Q59.9619 704.8 59.9619 700.057 Q59.9619 695.379 56.2698 692.641 Q52.5777 689.904 46.212 689.904 Q39.8781 689.904 36.186 692.641 Q32.4621 695.379 32.4621 700.057 M27.4968 700.057 Q27.4968 692.419 32.4621 688.058 Q37.4273 683.697 46.212 683.697 Q54.9649 683.697 59.9619 688.058 Q64.9272 692.419 64.9272 700.057 Q64.9272 707.728 59.9619 712.089 Q54.9649 716.417 46.212 716.417 Q37.4273 716.417 32.4621 712.089 Q27.4968 707.728 27.4968 700.057 Z" fill="#000000" fill-rule="nonzero" fill-opacity="1"></path><path clip-path="url(#clip330)" d="M33.8307 653.333 Q33.2578 654.32 33.0032 655.497 Q32.7167 656.643 32.7167 658.044 Q32.7167 663.009 35.9632 665.683 Q39.1779 668.324 45.2253 668.324 L64.0042 668.324 L64.0042 674.213 L28.3562 674.213 L28.3562 668.324 L33.8944 668.324 Q30.6479 666.478 29.0883 663.518 Q27.4968 660.558 27.4968 656.325 Q27.4968 655.72 27.5923 654.988 Q27.656 654.256 27.8151 653.365 L33.8307 653.333 Z" fill="#000000" fill-rule="nonzero" fill-opacity="1"></path><polyline clip-path="url(#clip332)" style="stroke:#009af9; stroke-linecap:round; stroke-linejoin:round; stroke-width:4; stroke-opacity:1; fill:none" points="237.067,666.431 251.129,530.405 277.542,315.257 309.194,146.975 348.662,86.1857 398.428,188.552 455.651,395.16 512.083,569.005 581.576,700.615 669.591,778.219 744.812,807.243 841.702,824.808 943.769,833.781 1071.9,839.537 1221.79,842.881 1411.15,844.798 1639.03,845.689 1898.76,845.991 2161.36,845.941 2291.13,846.145 "></polyline>
<polyline clip-path="url(#clip332)" style="stroke:#e26f46; stroke-linecap:round; stroke-linejoin:round; stroke-width:4; stroke-opacity:1; fill:none" points="237.067,666.431 251.129,657.446 277.542,645.267 309.194,636.905 348.662,631.344 398.428,624.009 455.651,608.469 512.083,585.818 581.576,553.076 669.591,511.394 744.812,478.89 841.702,442.546 943.769,410.75 1071.9,378.933 1221.79,350.869 1411.15,325.886 1639.03,306.453 1898.76,293.224 2161.36,285.564 2291.13,283.119 "></polyline>
<polyline clip-path="url(#clip332)" style="stroke:#3da44d; stroke-linecap:round; stroke-linejoin:round; stroke-width:4; stroke-opacity:1; fill:none" points="237.067,1384.24 251.129,1357.12 277.542,1296.86 309.194,1214 348.662,1106.64 398.428,985.197 455.651,881.274 512.083,815.03 581.576,767.318 669.591,735.757 744.812,721.011 841.702,709.805 943.769,702.889 1071.9,697.924 1221.79,694.874 1411.15,693.081 1639.03,692.233 1898.76,691.914 2161.36,691.839 2291.13,691.788 "></polyline>
<path clip-path="url(#clip330)" d="M1515.83 1377.32 L2280.18 1377.32 L2280.18 1169.96 L1515.83 1169.96  Z" fill="#ffffff" fill-rule="evenodd" fill-opacity="1"></path>
<polyline clip-path="url(#clip330)" style="stroke:#000000; stroke-linecap:round; stroke-linejoin:round; stroke-width:4; stroke-opacity:1; fill:none" points="1515.83,1377.32 2280.18,1377.32 2280.18,1169.96 1515.83,1169.96 1515.83,1377.32 "></polyline>
<polyline clip-path="url(#clip330)" style="stroke:#009af9; stroke-linecap:round; stroke-linejoin:round; stroke-width:4; stroke-opacity:1; fill:none" points="1540.02,1221.8 1685.18,1221.8 "></polyline>
<path clip-path="url(#clip330)" d="M1737.24 1207.18 L1737.24 1212.11 Q1734.88 1209.91 1732.19 1208.82 Q1729.53 1207.73 1726.52 1207.73 Q1720.6 1207.73 1717.45 1211.37 Q1714.3 1214.98 1714.3 1221.83 Q1714.3 1228.66 1717.45 1232.29 Q1720.6 1235.9 1726.52 1235.9 Q1729.53 1235.9 1732.19 1234.82 Q1734.88 1233.73 1737.24 1231.53 L1737.24 1236.41 Q1734.79 1238.08 1732.03 1238.91 Q1729.3 1239.75 1726.24 1239.75 Q1718.4 1239.75 1713.88 1234.95 Q1709.37 1230.14 1709.37 1221.83 Q1709.37 1213.5 1713.88 1208.71 Q1718.4 1203.89 1726.24 1203.89 Q1729.35 1203.89 1732.08 1204.72 Q1734.83 1205.53 1737.24 1207.18 Z" fill="#000000" fill-rule="nonzero" fill-opacity="1"></path><path clip-path="url(#clip330)" d="M1756.06 1226.04 Q1750.9 1226.04 1748.91 1227.22 Q1746.92 1228.4 1746.92 1231.25 Q1746.92 1233.52 1748.4 1234.86 Q1749.9 1236.18 1752.47 1236.18 Q1756.01 1236.18 1758.14 1233.68 Q1760.29 1231.16 1760.29 1226.99 L1760.29 1226.04 L1756.06 1226.04 M1764.55 1224.28 L1764.55 1239.08 L1760.29 1239.08 L1760.29 1235.14 Q1758.84 1237.5 1756.66 1238.64 Q1754.48 1239.75 1751.34 1239.75 Q1747.36 1239.75 1744.99 1237.52 Q1742.66 1235.28 1742.66 1231.53 Q1742.66 1227.15 1745.57 1224.93 Q1748.51 1222.71 1754.32 1222.71 L1760.29 1222.71 L1760.29 1222.29 Q1760.29 1219.35 1758.35 1217.76 Q1756.43 1216.14 1752.93 1216.14 Q1750.71 1216.14 1748.61 1216.67 Q1746.5 1217.2 1744.55 1218.27 L1744.55 1214.33 Q1746.89 1213.43 1749.09 1212.99 Q1751.29 1212.52 1753.37 1212.52 Q1759 1212.52 1761.78 1215.44 Q1764.55 1218.36 1764.55 1224.28 Z" fill="#000000" fill-rule="nonzero" fill-opacity="1"></path><path clip-path="url(#clip330)" d="M1788.35 1217.13 Q1787.63 1216.71 1786.78 1216.53 Q1785.94 1216.32 1784.92 1216.32 Q1781.31 1216.32 1779.37 1218.68 Q1777.45 1221.02 1777.45 1225.42 L1777.45 1239.08 L1773.17 1239.08 L1773.17 1213.15 L1777.45 1213.15 L1777.45 1217.18 Q1778.79 1214.82 1780.94 1213.68 Q1783.1 1212.52 1786.17 1212.52 Q1786.61 1212.52 1787.15 1212.59 Q1787.68 1212.64 1788.33 1212.76 L1788.35 1217.13 Z" fill="#000000" fill-rule="nonzero" fill-opacity="1"></path><path clip-path="url(#clip330)" d="M1809.04 1225.81 Q1809.04 1221.18 1807.12 1218.64 Q1805.23 1216.09 1801.78 1216.09 Q1798.35 1216.09 1796.43 1218.64 Q1794.53 1221.18 1794.53 1225.81 Q1794.53 1230.42 1796.43 1232.96 Q1798.35 1235.51 1801.78 1235.51 Q1805.23 1235.51 1807.12 1232.96 Q1809.04 1230.42 1809.04 1225.81 M1813.3 1235.86 Q1813.3 1242.48 1810.36 1245.7 Q1807.42 1248.94 1801.36 1248.94 Q1799.11 1248.94 1797.12 1248.59 Q1795.13 1248.27 1793.26 1247.57 L1793.26 1243.43 Q1795.13 1244.45 1796.96 1244.93 Q1798.79 1245.42 1800.69 1245.42 Q1804.88 1245.42 1806.96 1243.22 Q1809.04 1241.04 1809.04 1236.62 L1809.04 1234.52 Q1807.73 1236.81 1805.66 1237.94 Q1803.6 1239.08 1800.73 1239.08 Q1795.97 1239.08 1793.05 1235.44 Q1790.13 1231.81 1790.13 1225.81 Q1790.13 1219.79 1793.05 1216.16 Q1795.97 1212.52 1800.73 1212.52 Q1803.6 1212.52 1805.66 1213.66 Q1807.73 1214.79 1809.04 1217.08 L1809.04 1213.15 L1813.3 1213.15 L1813.3 1235.86 Z" fill="#000000" fill-rule="nonzero" fill-opacity="1"></path><path clip-path="url(#clip330)" d="M1833.86 1226.04 Q1828.7 1226.04 1826.71 1227.22 Q1824.72 1228.4 1824.72 1231.25 Q1824.72 1233.52 1826.2 1234.86 Q1827.7 1236.18 1830.27 1236.18 Q1833.81 1236.18 1835.94 1233.68 Q1838.1 1231.16 1838.1 1226.99 L1838.1 1226.04 L1833.86 1226.04 M1842.35 1224.28 L1842.35 1239.08 L1838.1 1239.08 L1838.1 1235.14 Q1836.64 1237.5 1834.46 1238.64 Q1832.29 1239.75 1829.14 1239.75 Q1825.16 1239.75 1822.79 1237.52 Q1820.46 1235.28 1820.46 1231.53 Q1820.46 1227.15 1823.37 1224.93 Q1826.31 1222.71 1832.12 1222.71 L1838.1 1222.71 L1838.1 1222.29 Q1838.1 1219.35 1836.15 1217.76 Q1834.23 1216.14 1830.73 1216.14 Q1828.51 1216.14 1826.41 1216.67 Q1824.3 1217.2 1822.35 1218.27 L1822.35 1214.33 Q1824.69 1213.43 1826.89 1212.99 Q1829.09 1212.52 1831.17 1212.52 Q1836.8 1212.52 1839.58 1215.44 Q1842.35 1218.36 1842.35 1224.28 Z" fill="#000000" fill-rule="nonzero" fill-opacity="1"></path><path clip-path="url(#clip330)" d="M1880.41 1207.69 Q1875.32 1207.69 1872.31 1211.48 Q1869.32 1215.28 1869.32 1221.83 Q1869.32 1228.36 1872.31 1232.15 Q1875.32 1235.95 1880.41 1235.95 Q1885.5 1235.95 1888.47 1232.15 Q1891.45 1228.36 1891.45 1221.83 Q1891.45 1215.28 1888.47 1211.48 Q1885.5 1207.69 1880.41 1207.69 M1880.41 1203.89 Q1887.68 1203.89 1892.03 1208.77 Q1896.38 1213.64 1896.38 1221.83 Q1896.38 1230 1892.03 1234.89 Q1887.68 1239.75 1880.41 1239.75 Q1873.12 1239.75 1868.74 1234.89 Q1864.39 1230.02 1864.39 1221.83 Q1864.39 1213.64 1868.74 1208.77 Q1873.12 1203.89 1880.41 1203.89 Z" fill="#000000" fill-rule="nonzero" fill-opacity="1"></path><path clip-path="url(#clip330)" d="M1918.53 1217.13 Q1917.82 1216.71 1916.96 1216.53 Q1916.13 1216.32 1915.11 1216.32 Q1911.5 1216.32 1909.55 1218.68 Q1907.63 1221.02 1907.63 1225.42 L1907.63 1239.08 L1903.35 1239.08 L1903.35 1213.15 L1907.63 1213.15 L1907.63 1217.18 Q1908.97 1214.82 1911.13 1213.68 Q1913.28 1212.52 1916.36 1212.52 Q1916.8 1212.52 1917.33 1212.59 Q1917.86 1212.64 1918.51 1212.76 L1918.53 1217.13 Z" fill="#000000" fill-rule="nonzero" fill-opacity="1"></path><path clip-path="url(#clip330)" d="M1939.23 1225.81 Q1939.23 1221.18 1937.31 1218.64 Q1935.41 1216.09 1931.96 1216.09 Q1928.53 1216.09 1926.61 1218.64 Q1924.72 1221.18 1924.72 1225.81 Q1924.72 1230.42 1926.61 1232.96 Q1928.53 1235.51 1931.96 1235.51 Q1935.41 1235.51 1937.31 1232.96 Q1939.23 1230.42 1939.23 1225.81 M1943.49 1235.86 Q1943.49 1242.48 1940.55 1245.7 Q1937.61 1248.94 1931.54 1248.94 Q1929.3 1248.94 1927.31 1248.59 Q1925.32 1248.27 1923.44 1247.57 L1923.44 1243.43 Q1925.32 1244.45 1927.15 1244.93 Q1928.97 1245.42 1930.87 1245.42 Q1935.06 1245.42 1937.15 1243.22 Q1939.23 1241.04 1939.23 1236.62 L1939.23 1234.52 Q1937.91 1236.81 1935.85 1237.94 Q1933.79 1239.08 1930.92 1239.08 Q1926.15 1239.08 1923.23 1235.44 Q1920.32 1231.81 1920.32 1225.81 Q1920.32 1219.79 1923.23 1216.16 Q1926.15 1212.52 1930.92 1212.52 Q1933.79 1212.52 1935.85 1213.66 Q1937.91 1214.79 1939.23 1217.08 L1939.23 1213.15 L1943.49 1213.15 L1943.49 1235.86 Z" fill="#000000" fill-rule="nonzero" fill-opacity="1"></path><path clip-path="url(#clip330)" d="M1964.04 1226.04 Q1958.88 1226.04 1956.89 1227.22 Q1954.9 1228.4 1954.9 1231.25 Q1954.9 1233.52 1956.38 1234.86 Q1957.89 1236.18 1960.46 1236.18 Q1964 1236.18 1966.13 1233.68 Q1968.28 1231.16 1968.28 1226.99 L1968.28 1226.04 L1964.04 1226.04 M1972.54 1224.28 L1972.54 1239.08 L1968.28 1239.08 L1968.28 1235.14 Q1966.82 1237.5 1964.65 1238.64 Q1962.47 1239.75 1959.32 1239.75 Q1955.34 1239.75 1952.98 1237.52 Q1950.64 1235.28 1950.64 1231.53 Q1950.64 1227.15 1953.56 1224.93 Q1956.5 1222.71 1962.31 1222.71 L1968.28 1222.71 L1968.28 1222.29 Q1968.28 1219.35 1966.34 1217.76 Q1964.41 1216.14 1960.92 1216.14 Q1958.7 1216.14 1956.59 1216.67 Q1954.48 1217.2 1952.54 1218.27 L1952.54 1214.33 Q1954.88 1213.43 1957.08 1212.99 Q1959.28 1212.52 1961.36 1212.52 Q1966.98 1212.52 1969.76 1215.44 Q1972.54 1218.36 1972.54 1224.28 M1959.83 1201.16 L1963.26 1201.16 L1968.93 1209.86 L1965.71 1209.86 L1961.54 1204.19 L1957.38 1209.86 L1954.16 1209.86 L1959.83 1201.16 Z" fill="#000000" fill-rule="nonzero" fill-opacity="1"></path><path clip-path="url(#clip330)" d="M2002.86 1223.43 L2002.86 1239.08 L1998.6 1239.08 L1998.6 1223.57 Q1998.6 1219.89 1997.17 1218.06 Q1995.73 1216.23 1992.86 1216.23 Q1989.41 1216.23 1987.42 1218.43 Q1985.43 1220.63 1985.43 1224.42 L1985.43 1239.08 L1981.15 1239.08 L1981.15 1213.15 L1985.43 1213.15 L1985.43 1217.18 Q1986.96 1214.84 1989.02 1213.68 Q1991.1 1212.52 1993.81 1212.52 Q1998.28 1212.52 2000.57 1215.3 Q2002.86 1218.06 2002.86 1223.43 Z" fill="#000000" fill-rule="nonzero" fill-opacity="1"></path><path clip-path="url(#clip330)" d="M2011.36 1213.15 L2015.62 1213.15 L2015.62 1239.08 L2011.36 1239.08 L2011.36 1213.15 M2011.36 1203.06 L2015.62 1203.06 L2015.62 1208.45 L2011.36 1208.45 L2011.36 1203.06 Z" fill="#000000" fill-rule="nonzero" fill-opacity="1"></path><path clip-path="url(#clip330)" d="M2043.19 1214.14 L2043.19 1218.13 Q2041.38 1217.13 2039.55 1216.64 Q2037.75 1216.14 2035.9 1216.14 Q2031.75 1216.14 2029.46 1218.77 Q2027.17 1221.39 2027.17 1226.14 Q2027.17 1230.88 2029.46 1233.52 Q2031.75 1236.14 2035.9 1236.14 Q2037.75 1236.14 2039.55 1235.65 Q2041.38 1235.14 2043.19 1234.14 L2043.19 1238.08 Q2041.4 1238.91 2039.48 1239.33 Q2037.58 1239.75 2035.43 1239.75 Q2029.58 1239.75 2026.13 1236.07 Q2022.68 1232.39 2022.68 1226.14 Q2022.68 1219.79 2026.15 1216.16 Q2029.65 1212.52 2035.71 1212.52 Q2037.68 1212.52 2039.55 1212.94 Q2041.43 1213.33 2043.19 1214.14 Z" fill="#000000" fill-rule="nonzero" fill-opacity="1"></path><path clip-path="url(#clip330)" d="M2062.38 1226.04 Q2057.21 1226.04 2055.22 1227.22 Q2053.23 1228.4 2053.23 1231.25 Q2053.23 1233.52 2054.71 1234.86 Q2056.22 1236.18 2058.79 1236.18 Q2062.33 1236.18 2064.46 1233.68 Q2066.61 1231.16 2066.61 1226.99 L2066.61 1226.04 L2062.38 1226.04 M2070.87 1224.28 L2070.87 1239.08 L2066.61 1239.08 L2066.61 1235.14 Q2065.15 1237.5 2062.98 1238.64 Q2060.8 1239.75 2057.65 1239.75 Q2053.67 1239.75 2051.31 1237.52 Q2048.97 1235.28 2048.97 1231.53 Q2048.97 1227.15 2051.89 1224.93 Q2054.83 1222.71 2060.64 1222.71 L2066.61 1222.71 L2066.61 1222.29 Q2066.61 1219.35 2064.67 1217.76 Q2062.75 1216.14 2059.25 1216.14 Q2057.03 1216.14 2054.92 1216.67 Q2052.82 1217.2 2050.87 1218.27 L2050.87 1214.33 Q2053.21 1213.43 2055.41 1212.99 Q2057.61 1212.52 2059.69 1212.52 Q2065.32 1212.52 2068.09 1215.44 Q2070.87 1218.36 2070.87 1224.28 Z" fill="#000000" fill-rule="nonzero" fill-opacity="1"></path><polyline clip-path="url(#clip330)" style="stroke:#e26f46; stroke-linecap:round; stroke-linejoin:round; stroke-width:4; stroke-opacity:1; fill:none" points="1540.02,1273.64 1685.18,1273.64 "></polyline>
<path clip-path="url(#clip330)" d="M1725.39 1259.53 Q1720.29 1259.53 1717.29 1263.32 Q1714.3 1267.12 1714.3 1273.67 Q1714.3 1280.2 1717.29 1283.99 Q1720.29 1287.79 1725.39 1287.79 Q1730.48 1287.79 1733.44 1283.99 Q1736.43 1280.2 1736.43 1273.67 Q1736.43 1267.12 1733.44 1263.32 Q1730.48 1259.53 1725.39 1259.53 M1725.39 1255.73 Q1732.66 1255.73 1737.01 1260.61 Q1741.36 1265.48 1741.36 1273.67 Q1741.36 1281.84 1737.01 1286.73 Q1732.66 1291.59 1725.39 1291.59 Q1718.1 1291.59 1713.72 1286.73 Q1709.37 1281.86 1709.37 1273.67 Q1709.37 1265.48 1713.72 1260.61 Q1718.1 1255.73 1725.39 1255.73 Z" fill="#000000" fill-rule="nonzero" fill-opacity="1"></path><path clip-path="url(#clip330)" d="M1770.04 1264.99 L1760.67 1277.61 L1770.53 1290.92 L1765.5 1290.92 L1757.96 1280.73 L1750.41 1290.92 L1745.39 1290.92 L1755.46 1277.35 L1746.24 1264.99 L1751.27 1264.99 L1758.14 1274.23 L1765.02 1264.99 L1770.04 1264.99 Z" fill="#000000" fill-rule="nonzero" fill-opacity="1"></path><path clip-path="url(#clip330)" d="M1776.54 1264.99 L1780.8 1264.99 L1780.8 1290.92 L1776.54 1290.92 L1776.54 1264.99 M1776.54 1254.9 L1780.8 1254.9 L1780.8 1260.29 L1776.54 1260.29 L1776.54 1254.9 Z" fill="#000000" fill-rule="nonzero" fill-opacity="1"></path><path clip-path="url(#clip330)" d="M1806.78 1277.65 Q1806.78 1273.02 1804.85 1270.48 Q1802.96 1267.93 1799.51 1267.93 Q1796.08 1267.93 1794.16 1270.48 Q1792.26 1273.02 1792.26 1277.65 Q1792.26 1282.26 1794.16 1284.8 Q1796.08 1287.35 1799.51 1287.35 Q1802.96 1287.35 1804.85 1284.8 Q1806.78 1282.26 1806.78 1277.65 M1811.04 1287.7 Q1811.04 1294.32 1808.1 1297.54 Q1805.16 1300.78 1799.09 1300.78 Q1796.85 1300.78 1794.85 1300.43 Q1792.86 1300.11 1790.99 1299.41 L1790.99 1295.27 Q1792.86 1296.29 1794.69 1296.77 Q1796.52 1297.26 1798.42 1297.26 Q1802.61 1297.26 1804.69 1295.06 Q1806.78 1292.88 1806.78 1288.46 L1806.78 1286.36 Q1805.46 1288.65 1803.4 1289.78 Q1801.34 1290.92 1798.47 1290.92 Q1793.7 1290.92 1790.78 1287.28 Q1787.86 1283.65 1787.86 1277.65 Q1787.86 1271.63 1790.78 1268 Q1793.7 1264.36 1798.47 1264.36 Q1801.34 1264.36 1803.4 1265.5 Q1805.46 1266.63 1806.78 1268.92 L1806.78 1264.99 L1811.04 1264.99 L1811.04 1287.7 Z" fill="#000000" fill-rule="nonzero" fill-opacity="1"></path><path clip-path="url(#clip330)" d="M1841.98 1276.89 L1841.98 1278.97 L1822.4 1278.97 Q1822.68 1283.37 1825.04 1285.68 Q1827.42 1287.98 1831.66 1287.98 Q1834.11 1287.98 1836.41 1287.37 Q1838.72 1286.77 1840.99 1285.57 L1840.99 1289.6 Q1838.7 1290.57 1836.29 1291.08 Q1833.88 1291.59 1831.41 1291.59 Q1825.2 1291.59 1821.57 1287.98 Q1817.96 1284.36 1817.96 1278.21 Q1817.96 1271.84 1821.38 1268.11 Q1824.83 1264.36 1830.66 1264.36 Q1835.9 1264.36 1838.93 1267.74 Q1841.98 1271.1 1841.98 1276.89 M1837.72 1275.64 Q1837.68 1272.14 1835.76 1270.06 Q1833.86 1267.98 1830.71 1267.98 Q1827.15 1267.98 1824.99 1269.99 Q1822.86 1272 1822.54 1275.66 L1837.72 1275.64 M1828.7 1253 L1832.12 1253 L1837.79 1261.7 L1834.58 1261.7 L1830.41 1256.03 L1826.24 1261.7 L1823.03 1261.7 L1828.7 1253 Z" fill="#000000" fill-rule="nonzero" fill-opacity="1"></path><path clip-path="url(#clip330)" d="M1870.53 1275.27 L1870.53 1290.92 L1866.27 1290.92 L1866.27 1275.41 Q1866.27 1271.73 1864.83 1269.9 Q1863.4 1268.07 1860.53 1268.07 Q1857.08 1268.07 1855.09 1270.27 Q1853.1 1272.47 1853.1 1276.26 L1853.1 1290.92 L1848.81 1290.92 L1848.81 1264.99 L1853.1 1264.99 L1853.1 1269.02 Q1854.62 1266.68 1856.68 1265.52 Q1858.77 1264.36 1861.47 1264.36 Q1865.94 1264.36 1868.23 1267.14 Q1870.53 1269.9 1870.53 1275.27 Z" fill="#000000" fill-rule="nonzero" fill-opacity="1"></path><path clip-path="url(#clip330)" d="M1879.02 1264.99 L1883.28 1264.99 L1883.28 1290.92 L1879.02 1290.92 L1879.02 1264.99 M1879.02 1254.9 L1883.28 1254.9 L1883.28 1260.29 L1879.02 1260.29 L1879.02 1254.9 Z" fill="#000000" fill-rule="nonzero" fill-opacity="1"></path><path clip-path="url(#clip330)" d="M1902.24 1267.98 Q1898.81 1267.98 1896.82 1270.66 Q1894.83 1273.32 1894.83 1277.98 Q1894.83 1282.63 1896.8 1285.31 Q1898.79 1287.98 1902.24 1287.98 Q1905.64 1287.98 1907.63 1285.29 Q1909.62 1282.61 1909.62 1277.98 Q1909.62 1273.37 1907.63 1270.68 Q1905.64 1267.98 1902.24 1267.98 M1902.24 1264.36 Q1907.79 1264.36 1910.97 1267.98 Q1914.14 1271.59 1914.14 1277.98 Q1914.14 1284.34 1910.97 1287.98 Q1907.79 1291.59 1902.24 1291.59 Q1896.66 1291.59 1893.49 1287.98 Q1890.34 1284.34 1890.34 1277.98 Q1890.34 1271.59 1893.49 1267.98 Q1896.66 1264.36 1902.24 1264.36 Z" fill="#000000" fill-rule="nonzero" fill-opacity="1"></path><path clip-path="url(#clip330)" d="M1941.13 1260.2 L1941.13 1287.07 L1946.78 1287.07 Q1953.93 1287.07 1957.24 1283.83 Q1960.57 1280.59 1960.57 1273.6 Q1960.57 1266.66 1957.24 1263.44 Q1953.93 1260.2 1946.78 1260.2 L1941.13 1260.2 M1936.45 1256.36 L1946.06 1256.36 Q1956.1 1256.36 1960.8 1260.55 Q1965.5 1264.71 1965.5 1273.6 Q1965.5 1282.54 1960.78 1286.73 Q1956.06 1290.92 1946.06 1290.92 L1936.45 1290.92 L1936.45 1256.36 Z" fill="#000000" fill-rule="nonzero" fill-opacity="1"></path><path clip-path="url(#clip330)" d="M1972.77 1264.99 L1977.03 1264.99 L1977.03 1290.92 L1972.77 1290.92 L1972.77 1264.99 M1972.77 1254.9 L1977.03 1254.9 L1977.03 1260.29 L1972.77 1260.29 L1972.77 1254.9 Z" fill="#000000" fill-rule="nonzero" fill-opacity="1"></path><path clip-path="url(#clip330)" d="M2002.47 1265.75 L2002.47 1269.78 Q2000.66 1268.86 1998.72 1268.39 Q1996.77 1267.93 1994.69 1267.93 Q1991.52 1267.93 1989.92 1268.9 Q1988.35 1269.87 1988.35 1271.82 Q1988.35 1273.3 1989.48 1274.16 Q1990.62 1274.99 1994.04 1275.75 L1995.5 1276.08 Q2000.04 1277.05 2001.94 1278.83 Q2003.86 1280.59 2003.86 1283.76 Q2003.86 1287.37 2000.99 1289.48 Q1998.14 1291.59 1993.14 1291.59 Q1991.06 1291.59 1988.79 1291.17 Q1986.54 1290.78 1984.04 1289.97 L1984.04 1285.57 Q1986.4 1286.79 1988.7 1287.42 Q1990.99 1288.02 1993.23 1288.02 Q1996.24 1288.02 1997.86 1287 Q1999.48 1285.96 1999.48 1284.09 Q1999.48 1282.35 1998.3 1281.42 Q1997.15 1280.5 1993.19 1279.64 L1991.71 1279.3 Q1987.75 1278.46 1985.99 1276.75 Q1984.23 1275.01 1984.23 1272 Q1984.23 1268.35 1986.82 1266.36 Q1989.41 1264.36 1994.18 1264.36 Q1996.54 1264.36 1998.63 1264.71 Q2000.71 1265.06 2002.47 1265.75 Z" fill="#000000" fill-rule="nonzero" fill-opacity="1"></path><path clip-path="url(#clip330)" d="M2027.17 1265.75 L2027.17 1269.78 Q2025.36 1268.86 2023.42 1268.39 Q2021.47 1267.93 2019.39 1267.93 Q2016.22 1267.93 2014.62 1268.9 Q2013.05 1269.87 2013.05 1271.82 Q2013.05 1273.3 2014.18 1274.16 Q2015.32 1274.99 2018.74 1275.75 L2020.2 1276.08 Q2024.74 1277.05 2026.64 1278.83 Q2028.56 1280.59 2028.56 1283.76 Q2028.56 1287.37 2025.69 1289.48 Q2022.84 1291.59 2017.84 1291.59 Q2015.76 1291.59 2013.49 1291.17 Q2011.24 1290.78 2008.74 1289.97 L2008.74 1285.57 Q2011.1 1286.79 2013.4 1287.42 Q2015.69 1288.02 2017.93 1288.02 Q2020.94 1288.02 2022.56 1287 Q2024.18 1285.96 2024.18 1284.09 Q2024.18 1282.35 2023 1281.42 Q2021.84 1280.5 2017.89 1279.64 L2016.4 1279.3 Q2012.45 1278.46 2010.69 1276.75 Q2008.93 1275.01 2008.93 1272 Q2008.93 1268.35 2011.52 1266.36 Q2014.11 1264.36 2018.88 1264.36 Q2021.24 1264.36 2023.33 1264.71 Q2025.41 1265.06 2027.17 1265.75 Z" fill="#000000" fill-rule="nonzero" fill-opacity="1"></path><path clip-path="url(#clip330)" d="M2045.39 1267.98 Q2041.96 1267.98 2039.97 1270.66 Q2037.98 1273.32 2037.98 1277.98 Q2037.98 1282.63 2039.95 1285.31 Q2041.94 1287.98 2045.39 1287.98 Q2048.79 1287.98 2050.78 1285.29 Q2052.77 1282.61 2052.77 1277.98 Q2052.77 1273.37 2050.78 1270.68 Q2048.79 1267.98 2045.39 1267.98 M2045.39 1264.36 Q2050.94 1264.36 2054.11 1267.98 Q2057.28 1271.59 2057.28 1277.98 Q2057.28 1284.34 2054.11 1287.98 Q2050.94 1291.59 2045.39 1291.59 Q2039.81 1291.59 2036.64 1287.98 Q2033.49 1284.34 2033.49 1277.98 Q2033.49 1271.59 2036.64 1267.98 Q2039.81 1264.36 2045.39 1264.36 Z" fill="#000000" fill-rule="nonzero" fill-opacity="1"></path><path clip-path="url(#clip330)" d="M2064.34 1254.9 L2068.6 1254.9 L2068.6 1290.92 L2064.34 1290.92 L2064.34 1254.9 Z" fill="#000000" fill-rule="nonzero" fill-opacity="1"></path><path clip-path="url(#clip330)" d="M2074.46 1264.99 L2078.97 1264.99 L2087.08 1286.75 L2095.18 1264.99 L2099.69 1264.99 L2089.97 1290.92 L2084.18 1290.92 L2074.46 1264.99 Z" fill="#000000" fill-rule="nonzero" fill-opacity="1"></path><path clip-path="url(#clip330)" d="M2105.57 1264.99 L2109.83 1264.99 L2109.83 1290.92 L2105.57 1290.92 L2105.57 1264.99 M2105.57 1254.9 L2109.83 1254.9 L2109.83 1260.29 L2105.57 1260.29 L2105.57 1254.9 Z" fill="#000000" fill-rule="nonzero" fill-opacity="1"></path><path clip-path="url(#clip330)" d="M2135.8 1268.92 L2135.8 1254.9 L2140.06 1254.9 L2140.06 1290.92 L2135.8 1290.92 L2135.8 1287.03 Q2134.46 1289.34 2132.4 1290.48 Q2130.36 1291.59 2127.49 1291.59 Q2122.79 1291.59 2119.83 1287.84 Q2116.89 1284.09 2116.89 1277.98 Q2116.89 1271.86 2119.83 1268.11 Q2122.79 1264.36 2127.49 1264.36 Q2130.36 1264.36 2132.4 1265.5 Q2134.46 1266.61 2135.8 1268.92 M2121.29 1277.98 Q2121.29 1282.67 2123.21 1285.36 Q2125.15 1288.02 2128.53 1288.02 Q2131.91 1288.02 2133.86 1285.36 Q2135.8 1282.67 2135.8 1277.98 Q2135.8 1273.28 2133.86 1270.61 Q2131.91 1267.93 2128.53 1267.93 Q2125.15 1267.93 2123.21 1270.61 Q2121.29 1273.28 2121.29 1277.98 Z" fill="#000000" fill-rule="nonzero" fill-opacity="1"></path><path clip-path="url(#clip330)" d="M2158.88 1267.98 Q2155.45 1267.98 2153.46 1270.66 Q2151.47 1273.32 2151.47 1277.98 Q2151.47 1282.63 2153.44 1285.31 Q2155.43 1287.98 2158.88 1287.98 Q2162.28 1287.98 2164.27 1285.29 Q2166.26 1282.61 2166.26 1277.98 Q2166.26 1273.37 2164.27 1270.68 Q2162.28 1267.98 2158.88 1267.98 M2158.88 1264.36 Q2164.44 1264.36 2167.61 1267.98 Q2170.78 1271.59 2170.78 1277.98 Q2170.78 1284.34 2167.61 1287.98 Q2164.44 1291.59 2158.88 1291.59 Q2153.3 1291.59 2150.13 1287.98 Q2146.98 1284.34 2146.98 1277.98 Q2146.98 1271.59 2150.13 1267.98 Q2153.3 1264.36 2158.88 1264.36 Z" fill="#000000" fill-rule="nonzero" fill-opacity="1"></path><polyline clip-path="url(#clip330)" style="stroke:#3da44d; stroke-linecap:round; stroke-linejoin:round; stroke-width:4; stroke-opacity:1; fill:none" points="1540.02,1325.48 1685.18,1325.48 "></polyline>
<path clip-path="url(#clip330)" d="M1714.05 1312.04 L1714.05 1325.02 L1719.92 1325.02 Q1723.19 1325.02 1724.97 1323.33 Q1726.75 1321.64 1726.75 1318.52 Q1726.75 1315.42 1724.97 1313.73 Q1723.19 1312.04 1719.92 1312.04 L1714.05 1312.04 M1709.37 1308.2 L1719.92 1308.2 Q1725.73 1308.2 1728.7 1310.83 Q1731.68 1313.45 1731.68 1318.52 Q1731.68 1323.64 1728.7 1326.25 Q1725.73 1328.87 1719.92 1328.87 L1714.05 1328.87 L1714.05 1342.76 L1709.37 1342.76 L1709.37 1308.2 Z" fill="#000000" fill-rule="nonzero" fill-opacity="1"></path><path clip-path="url(#clip330)" d="M1746.13 1319.82 Q1742.7 1319.82 1740.71 1322.5 Q1738.72 1325.16 1738.72 1329.82 Q1738.72 1334.47 1740.69 1337.15 Q1742.68 1339.82 1746.13 1339.82 Q1749.53 1339.82 1751.52 1337.13 Q1753.51 1334.45 1753.51 1329.82 Q1753.51 1325.21 1751.52 1322.52 Q1749.53 1319.82 1746.13 1319.82 M1746.13 1316.2 Q1751.68 1316.2 1754.85 1319.82 Q1758.03 1323.43 1758.03 1329.82 Q1758.03 1336.18 1754.85 1339.82 Q1751.68 1343.43 1746.13 1343.43 Q1740.55 1343.43 1737.38 1339.82 Q1734.23 1336.18 1734.23 1329.82 Q1734.23 1323.43 1737.38 1319.82 Q1740.55 1316.2 1746.13 1316.2 Z" fill="#000000" fill-rule="nonzero" fill-opacity="1"></path><path clip-path="url(#clip330)" d="M1769.21 1338.87 L1769.21 1352.62 L1764.92 1352.62 L1764.92 1316.83 L1769.21 1316.83 L1769.21 1320.76 Q1770.55 1318.45 1772.59 1317.34 Q1774.65 1316.2 1777.49 1316.2 Q1782.22 1316.2 1785.16 1319.95 Q1788.12 1323.7 1788.12 1329.82 Q1788.12 1335.93 1785.16 1339.68 Q1782.22 1343.43 1777.49 1343.43 Q1774.65 1343.43 1772.59 1342.32 Q1770.55 1341.18 1769.21 1338.87 M1783.7 1329.82 Q1783.7 1325.12 1781.75 1322.45 Q1779.83 1319.77 1776.45 1319.77 Q1773.07 1319.77 1771.13 1322.45 Q1769.21 1325.12 1769.21 1329.82 Q1769.21 1334.51 1771.13 1337.2 Q1773.07 1339.86 1776.45 1339.86 Q1779.83 1339.86 1781.75 1337.2 Q1783.7 1334.51 1783.7 1329.82 Z" fill="#000000" fill-rule="nonzero" fill-opacity="1"></path><path clip-path="url(#clip330)" d="M1794.74 1332.52 L1794.74 1316.83 L1799 1316.83 L1799 1332.36 Q1799 1336.04 1800.43 1337.89 Q1801.87 1339.72 1804.74 1339.72 Q1808.19 1339.72 1810.18 1337.52 Q1812.19 1335.32 1812.19 1331.53 L1812.19 1316.83 L1816.45 1316.83 L1816.45 1342.76 L1812.19 1342.76 L1812.19 1338.77 Q1810.64 1341.13 1808.58 1342.29 Q1806.54 1343.43 1803.84 1343.43 Q1799.37 1343.43 1797.05 1340.65 Q1794.74 1337.87 1794.74 1332.52 M1805.46 1316.2 L1805.46 1316.2 Z" fill="#000000" fill-rule="nonzero" fill-opacity="1"></path><path clip-path="url(#clip330)" d="M1825.22 1306.74 L1829.48 1306.74 L1829.48 1342.76 L1825.22 1342.76 L1825.22 1306.74 Z" fill="#000000" fill-rule="nonzero" fill-opacity="1"></path><path clip-path="url(#clip330)" d="M1850.18 1329.72 Q1845.02 1329.72 1843.03 1330.9 Q1841.04 1332.08 1841.04 1334.93 Q1841.04 1337.2 1842.52 1338.54 Q1844.02 1339.86 1846.59 1339.86 Q1850.13 1339.86 1852.26 1337.36 Q1854.41 1334.84 1854.41 1330.67 L1854.41 1329.72 L1850.18 1329.72 M1858.67 1327.96 L1858.67 1342.76 L1854.41 1342.76 L1854.41 1338.82 Q1852.96 1341.18 1850.78 1342.32 Q1848.6 1343.43 1845.46 1343.43 Q1841.47 1343.43 1839.11 1341.2 Q1836.78 1338.96 1836.78 1335.21 Q1836.78 1330.83 1839.69 1328.61 Q1842.63 1326.39 1848.44 1326.39 L1854.41 1326.39 L1854.41 1325.97 Q1854.41 1323.03 1852.47 1321.44 Q1850.55 1319.82 1847.05 1319.82 Q1844.83 1319.82 1842.72 1320.35 Q1840.62 1320.88 1838.67 1321.95 L1838.67 1318.01 Q1841.01 1317.11 1843.21 1316.67 Q1845.41 1316.2 1847.49 1316.2 Q1853.12 1316.2 1855.9 1319.12 Q1858.67 1322.04 1858.67 1327.96 Z" fill="#000000" fill-rule="nonzero" fill-opacity="1"></path><path clip-path="url(#clip330)" d="M1886.1 1317.82 L1886.1 1321.81 Q1884.3 1320.81 1882.47 1320.32 Q1880.66 1319.82 1878.81 1319.82 Q1874.67 1319.82 1872.38 1322.45 Q1870.09 1325.07 1870.09 1329.82 Q1870.09 1334.56 1872.38 1337.2 Q1874.67 1339.82 1878.81 1339.82 Q1880.66 1339.82 1882.47 1339.33 Q1884.3 1338.82 1886.1 1337.82 L1886.1 1341.76 Q1884.32 1342.59 1882.4 1343.01 Q1880.5 1343.43 1878.35 1343.43 Q1872.49 1343.43 1869.04 1339.75 Q1865.6 1336.07 1865.6 1329.82 Q1865.6 1323.47 1869.07 1319.84 Q1872.56 1316.2 1878.63 1316.2 Q1880.6 1316.2 1882.47 1316.62 Q1884.35 1317.01 1886.1 1317.82 M1880.09 1342.76 Q1881.36 1344.19 1881.98 1345.39 Q1882.61 1346.62 1882.61 1347.73 Q1882.61 1349.79 1881.22 1350.83 Q1879.83 1351.9 1877.1 1351.9 Q1876.03 1351.9 1875.02 1351.76 Q1874.02 1351.62 1873.03 1351.34 L1873.03 1348.31 Q1873.81 1348.7 1874.67 1348.87 Q1875.53 1349.05 1876.61 1349.05 Q1877.98 1349.05 1878.67 1348.5 Q1879.37 1347.94 1879.37 1346.88 Q1879.37 1346.18 1878.86 1345.16 Q1878.37 1344.17 1877.33 1342.76 L1880.09 1342.76 Z" fill="#000000" fill-rule="nonzero" fill-opacity="1"></path><path clip-path="url(#clip330)" d="M1905.29 1329.72 Q1900.13 1329.72 1898.14 1330.9 Q1896.15 1332.08 1896.15 1334.93 Q1896.15 1337.2 1897.63 1338.54 Q1899.14 1339.86 1901.71 1339.86 Q1905.25 1339.86 1907.38 1337.36 Q1909.53 1334.84 1909.53 1330.67 L1909.53 1329.72 L1905.29 1329.72 M1913.79 1327.96 L1913.79 1342.76 L1909.53 1342.76 L1909.53 1338.82 Q1908.07 1341.18 1905.9 1342.32 Q1903.72 1343.43 1900.57 1343.43 Q1896.59 1343.43 1894.23 1341.2 Q1891.89 1338.96 1891.89 1335.21 Q1891.89 1330.83 1894.81 1328.61 Q1897.75 1326.39 1903.56 1326.39 L1909.53 1326.39 L1909.53 1325.97 Q1909.53 1323.03 1907.59 1321.44 Q1905.66 1319.82 1902.17 1319.82 Q1899.95 1319.82 1897.84 1320.35 Q1895.73 1320.88 1893.79 1321.95 L1893.79 1318.01 Q1896.13 1317.11 1898.33 1316.67 Q1900.53 1316.2 1902.61 1316.2 Q1908.23 1316.2 1911.01 1319.12 Q1913.79 1322.04 1913.79 1327.96 M1902.7 1311.04 L1901.38 1309.77 Q1900.87 1309.31 1900.48 1309.1 Q1900.11 1308.87 1899.81 1308.87 Q1898.93 1308.87 1898.51 1309.72 Q1898.09 1310.56 1898.05 1312.45 L1895.16 1312.45 Q1895.2 1309.33 1896.38 1307.64 Q1897.56 1305.93 1899.67 1305.93 Q1900.55 1305.93 1901.29 1306.25 Q1902.03 1306.57 1902.89 1307.34 L1904.21 1308.61 Q1904.72 1309.07 1905.09 1309.31 Q1905.48 1309.51 1905.78 1309.51 Q1906.66 1309.51 1907.08 1308.68 Q1907.49 1307.82 1907.54 1305.93 L1910.43 1305.93 Q1910.39 1309.05 1909.21 1310.76 Q1908.03 1312.45 1905.92 1312.45 Q1905.04 1312.45 1904.3 1312.13 Q1903.56 1311.81 1902.7 1311.04 Z" fill="#000000" fill-rule="nonzero" fill-opacity="1"></path><path clip-path="url(#clip330)" d="M1932.61 1319.82 Q1929.18 1319.82 1927.19 1322.5 Q1925.2 1325.16 1925.2 1329.82 Q1925.2 1334.47 1927.17 1337.15 Q1929.16 1339.82 1932.61 1339.82 Q1936.01 1339.82 1938 1337.13 Q1939.99 1334.45 1939.99 1329.82 Q1939.99 1325.21 1938 1322.52 Q1936.01 1319.82 1932.61 1319.82 M1932.61 1316.2 Q1938.16 1316.2 1941.34 1319.82 Q1944.51 1323.43 1944.51 1329.82 Q1944.51 1336.18 1941.34 1339.82 Q1938.16 1343.43 1932.61 1343.43 Q1927.03 1343.43 1923.86 1339.82 Q1920.71 1336.18 1920.71 1329.82 Q1920.71 1323.43 1923.86 1319.82 Q1927.03 1316.2 1932.61 1316.2 Z" fill="#000000" fill-rule="nonzero" fill-opacity="1"></path><path clip-path="url(#clip330)" d="M1983.7 1320.76 L1983.7 1306.74 L1987.96 1306.74 L1987.96 1342.76 L1983.7 1342.76 L1983.7 1338.87 Q1982.35 1341.18 1980.29 1342.32 Q1978.26 1343.43 1975.39 1343.43 Q1970.69 1343.43 1967.72 1339.68 Q1964.78 1335.93 1964.78 1329.82 Q1964.78 1323.7 1967.72 1319.95 Q1970.69 1316.2 1975.39 1316.2 Q1978.26 1316.2 1980.29 1317.34 Q1982.35 1318.45 1983.7 1320.76 M1969.18 1329.82 Q1969.18 1334.51 1971.1 1337.2 Q1973.05 1339.86 1976.43 1339.86 Q1979.81 1339.86 1981.75 1337.2 Q1983.7 1334.51 1983.7 1329.82 Q1983.7 1325.12 1981.75 1322.45 Q1979.81 1319.77 1976.43 1319.77 Q1973.05 1319.77 1971.1 1322.45 Q1969.18 1325.12 1969.18 1329.82 Z" fill="#000000" fill-rule="nonzero" fill-opacity="1"></path><path clip-path="url(#clip330)" d="M2018.9 1328.73 L2018.9 1330.81 L1999.32 1330.81 Q1999.6 1335.21 2001.96 1337.52 Q2004.34 1339.82 2008.58 1339.82 Q2011.03 1339.82 2013.33 1339.21 Q2015.64 1338.61 2017.91 1337.41 L2017.91 1341.44 Q2015.62 1342.41 2013.21 1342.92 Q2010.8 1343.43 2008.33 1343.43 Q2002.12 1343.43 1998.49 1339.82 Q1994.88 1336.2 1994.88 1330.05 Q1994.88 1323.68 1998.3 1319.95 Q2001.75 1316.2 2007.59 1316.2 Q2012.82 1316.2 2015.85 1319.58 Q2018.9 1322.94 2018.9 1328.73 M2014.65 1327.48 Q2014.6 1323.98 2012.68 1321.9 Q2010.78 1319.82 2007.63 1319.82 Q2004.07 1319.82 2001.91 1321.83 Q1999.78 1323.84 1999.46 1327.5 L2014.65 1327.48 Z" fill="#000000" fill-rule="nonzero" fill-opacity="1"></path><path clip-path="url(#clip330)" d="M2045.83 1326.25 L2045.83 1338.91 L2053.33 1338.91 Q2057.1 1338.91 2058.9 1337.36 Q2060.73 1335.79 2060.73 1332.57 Q2060.73 1329.33 2058.9 1327.8 Q2057.1 1326.25 2053.33 1326.25 L2045.83 1326.25 M2045.83 1312.04 L2045.83 1322.45 L2052.75 1322.45 Q2056.17 1322.45 2057.84 1321.18 Q2059.53 1319.89 2059.53 1317.25 Q2059.53 1314.63 2057.84 1313.33 Q2056.17 1312.04 2052.75 1312.04 L2045.83 1312.04 M2041.15 1308.2 L2053.09 1308.2 Q2058.44 1308.2 2061.33 1310.42 Q2064.23 1312.64 2064.23 1316.74 Q2064.23 1319.91 2062.75 1321.78 Q2061.27 1323.66 2058.4 1324.12 Q2061.84 1324.86 2063.74 1327.22 Q2065.66 1329.56 2065.66 1333.08 Q2065.66 1337.71 2062.52 1340.23 Q2059.37 1342.76 2053.56 1342.76 L2041.15 1342.76 L2041.15 1308.2 Z" fill="#000000" fill-rule="nonzero" fill-opacity="1"></path><path clip-path="url(#clip330)" d="M2085.27 1329.72 Q2080.11 1329.72 2078.12 1330.9 Q2076.13 1332.08 2076.13 1334.93 Q2076.13 1337.2 2077.61 1338.54 Q2079.11 1339.86 2081.68 1339.86 Q2085.22 1339.86 2087.35 1337.36 Q2089.51 1334.84 2089.51 1330.67 L2089.51 1329.72 L2085.27 1329.72 M2093.77 1327.96 L2093.77 1342.76 L2089.51 1342.76 L2089.51 1338.82 Q2088.05 1341.18 2085.87 1342.32 Q2083.7 1343.43 2080.55 1343.43 Q2076.57 1343.43 2074.21 1341.2 Q2071.87 1338.96 2071.87 1335.21 Q2071.87 1330.83 2074.78 1328.61 Q2077.72 1326.39 2083.53 1326.39 L2089.51 1326.39 L2089.51 1325.97 Q2089.51 1323.03 2087.56 1321.44 Q2085.64 1319.82 2082.14 1319.82 Q2079.92 1319.82 2077.82 1320.35 Q2075.71 1320.88 2073.77 1321.95 L2073.77 1318.01 Q2076.1 1317.11 2078.3 1316.67 Q2080.5 1316.2 2082.58 1316.2 Q2088.21 1316.2 2090.99 1319.12 Q2093.77 1322.04 2093.77 1327.96 Z" fill="#000000" fill-rule="nonzero" fill-opacity="1"></path><path clip-path="url(#clip330)" d="M2121.2 1317.82 L2121.2 1321.81 Q2119.39 1320.81 2117.56 1320.32 Q2115.76 1319.82 2113.9 1319.82 Q2109.76 1319.82 2107.47 1322.45 Q2105.18 1325.07 2105.18 1329.82 Q2105.18 1334.56 2107.47 1337.2 Q2109.76 1339.82 2113.9 1339.82 Q2115.76 1339.82 2117.56 1339.33 Q2119.39 1338.82 2121.2 1337.82 L2121.2 1341.76 Q2119.41 1342.59 2117.49 1343.01 Q2115.59 1343.43 2113.44 1343.43 Q2107.58 1343.43 2104.14 1339.75 Q2100.69 1336.07 2100.69 1329.82 Q2100.69 1323.47 2104.16 1319.84 Q2107.65 1316.2 2113.72 1316.2 Q2115.69 1316.2 2117.56 1316.62 Q2119.44 1317.01 2121.2 1317.82 Z" fill="#000000" fill-rule="nonzero" fill-opacity="1"></path><path clip-path="url(#clip330)" d="M2132.82 1309.47 L2132.82 1316.83 L2141.59 1316.83 L2141.59 1320.14 L2132.82 1320.14 L2132.82 1334.21 Q2132.82 1337.38 2133.67 1338.29 Q2134.55 1339.19 2137.21 1339.19 L2141.59 1339.19 L2141.59 1342.76 L2137.21 1342.76 Q2132.28 1342.76 2130.41 1340.93 Q2128.53 1339.07 2128.53 1334.21 L2128.53 1320.14 L2125.41 1320.14 L2125.41 1316.83 L2128.53 1316.83 L2128.53 1309.47 L2132.82 1309.47 Z" fill="#000000" fill-rule="nonzero" fill-opacity="1"></path><path clip-path="url(#clip330)" d="M2169.37 1328.73 L2169.37 1330.81 L2149.78 1330.81 Q2150.06 1335.21 2152.42 1337.52 Q2154.81 1339.82 2159.04 1339.82 Q2161.5 1339.82 2163.79 1339.21 Q2166.1 1338.61 2168.37 1337.41 L2168.37 1341.44 Q2166.08 1342.41 2163.67 1342.92 Q2161.26 1343.43 2158.79 1343.43 Q2152.58 1343.43 2148.95 1339.82 Q2145.34 1336.2 2145.34 1330.05 Q2145.34 1323.68 2148.76 1319.95 Q2152.21 1316.2 2158.05 1316.2 Q2163.28 1316.2 2166.31 1319.58 Q2169.37 1322.94 2169.37 1328.73 M2165.11 1327.48 Q2165.06 1323.98 2163.14 1321.9 Q2161.24 1319.82 2158.09 1319.82 Q2154.53 1319.82 2152.38 1321.83 Q2150.25 1323.84 2149.92 1327.5 L2165.11 1327.48 M2161.01 1304.84 L2165.62 1304.84 L2158.07 1313.54 L2154.53 1313.54 L2161.01 1304.84 Z" fill="#000000" fill-rule="nonzero" fill-opacity="1"></path><path clip-path="url(#clip330)" d="M2191.38 1320.81 Q2190.66 1320.39 2189.81 1320.21 Q2188.97 1320 2187.95 1320 Q2184.34 1320 2182.4 1322.36 Q2180.48 1324.7 2180.48 1329.1 L2180.48 1342.76 L2176.2 1342.76 L2176.2 1316.83 L2180.48 1316.83 L2180.48 1320.86 Q2181.82 1318.5 2183.97 1317.36 Q2186.13 1316.2 2189.2 1316.2 Q2189.64 1316.2 2190.18 1316.27 Q2190.71 1316.32 2191.36 1316.44 L2191.38 1320.81 Z" fill="#000000" fill-rule="nonzero" fill-opacity="1"></path><path clip-path="url(#clip330)" d="M2195.85 1316.83 L2200.11 1316.83 L2200.11 1342.76 L2195.85 1342.76 L2195.85 1316.83 M2195.85 1306.74 L2200.11 1306.74 L2200.11 1312.13 L2195.85 1312.13 L2195.85 1306.74 Z" fill="#000000" fill-rule="nonzero" fill-opacity="1"></path><path clip-path="url(#clip330)" d="M2220.8 1329.72 Q2215.64 1329.72 2213.65 1330.9 Q2211.66 1332.08 2211.66 1334.93 Q2211.66 1337.2 2213.14 1338.54 Q2214.64 1339.86 2217.21 1339.86 Q2220.76 1339.86 2222.88 1337.36 Q2225.04 1334.84 2225.04 1330.67 L2225.04 1329.72 L2220.8 1329.72 M2229.3 1327.96 L2229.3 1342.76 L2225.04 1342.76 L2225.04 1338.82 Q2223.58 1341.18 2221.4 1342.32 Q2219.23 1343.43 2216.08 1343.43 Q2212.1 1343.43 2209.74 1341.2 Q2207.4 1338.96 2207.4 1335.21 Q2207.4 1330.83 2210.32 1328.61 Q2213.26 1326.39 2219.07 1326.39 L2225.04 1326.39 L2225.04 1325.97 Q2225.04 1323.03 2223.09 1321.44 Q2221.17 1319.82 2217.68 1319.82 Q2215.45 1319.82 2213.35 1320.35 Q2211.24 1320.88 2209.3 1321.95 L2209.3 1318.01 Q2211.63 1317.11 2213.83 1316.67 Q2216.03 1316.2 2218.12 1316.2 Q2223.74 1316.2 2226.52 1319.12 Q2229.3 1322.04 2229.3 1327.96 Z" fill="#000000" fill-rule="nonzero" fill-opacity="1"></path><path clip-path="url(#clip330)" d="M2254.6 1317.59 L2254.6 1321.62 Q2252.79 1320.7 2250.85 1320.23 Q2248.9 1319.77 2246.82 1319.77 Q2243.65 1319.77 2242.05 1320.74 Q2240.48 1321.71 2240.48 1323.66 Q2240.48 1325.14 2241.61 1326 Q2242.75 1326.83 2246.17 1327.59 L2247.63 1327.92 Q2252.17 1328.89 2254.07 1330.67 Q2255.99 1332.43 2255.99 1335.6 Q2255.99 1339.21 2253.12 1341.32 Q2250.27 1343.43 2245.27 1343.43 Q2243.19 1343.43 2240.92 1343.01 Q2238.67 1342.62 2236.17 1341.81 L2236.17 1337.41 Q2238.53 1338.63 2240.82 1339.26 Q2243.12 1339.86 2245.36 1339.86 Q2248.37 1339.86 2249.99 1338.84 Q2251.61 1337.8 2251.61 1335.93 Q2251.61 1334.19 2250.43 1333.26 Q2249.27 1332.34 2245.32 1331.48 L2243.83 1331.14 Q2239.88 1330.3 2238.12 1328.59 Q2236.36 1326.85 2236.36 1323.84 Q2236.36 1320.19 2238.95 1318.2 Q2241.54 1316.2 2246.31 1316.2 Q2248.67 1316.2 2250.76 1316.55 Q2252.84 1316.9 2254.6 1317.59 Z" fill="#000000" fill-rule="nonzero" fill-opacity="1"></path></svg>